<svg width="360" height="207" viewBox="0 0 360 207" fill="none" xmlns="http://www.w3.org/2000/svg">
    <path d="M285.776 -7.25749L214.506 19.2513C210.669 20.6785 206.406 18.7267 204.979 14.8898L178.47 -56.3796C177.043 -60.2165 178.994 -64.4801 182.831 -65.9073L254.101 -92.4161C257.938 -93.8433 262.201 -91.8915 263.628 -88.0545L290.137 -16.7852C291.564 -12.9483 289.613 -8.68464 285.776 -7.25749Z" fill="#292929"/>
    <path d="M76.7431 191.19C53.2583 199.92 27.1276 187.96 18.3829 164.464C9.64468 140.985 21.6032 114.866 45.0881 106.136C68.5729 97.4059 94.7036 109.366 103.442 132.845C112.204 156.334 100.245 182.453 76.7431 191.19Z" fill="#292929"/>
    <path d="M72.7934 71.6521L1.59298 98.1194C-2.24022 99.5443 -6.50014 97.5945 -7.92639 93.7623L-34.4185 22.5806C-35.8448 18.7484 -33.8953 14.4904 -30.0621 13.0655L41.1383 -13.4017C44.9716 -14.8267 49.2315 -12.8769 50.6577 -9.04468L77.1499 62.137C78.5761 65.9692 76.6266 70.2272 72.7934 71.6521Z" fill="#DBEF06"/>
    <path d="M218.703 138.415L147.507 164.881C143.674 166.306 139.414 164.356 137.988 160.524L71.9329 -16.9626C70.5067 -20.7947 72.4561 -25.0525 76.289 -26.4773L147.485 -52.9435C151.318 -54.3683 155.578 -52.4186 157.004 -48.5866L223.059 128.9C224.485 132.732 222.536 136.99 218.703 138.415Z" fill="#292929"/>
    <path d="M442.062 52.9385L370.866 79.4046C367.033 80.8294 362.774 78.8797 361.347 75.0477L295.292 -102.439C293.866 -106.271 295.815 -110.529 299.648 -111.954L370.844 -138.42C374.677 -139.845 378.937 -137.895 380.363 -134.063L446.418 43.4238C447.845 47.2558 445.895 51.5136 442.062 52.9385Z" fill="#292929"/>
    <path d="M289.444 112.112C265.959 120.842 239.828 108.882 231.09 85.403C222.352 61.9243 234.31 35.8053 257.795 27.0753C281.28 18.3453 307.411 30.3055 316.149 53.7842C324.904 77.2564 312.946 103.375 289.444 112.112Z" fill="#DBEF06"/>
</svg>
