<svg width="360" height="191" viewBox="0 0 360 191" fill="none" xmlns="http://www.w3.org/2000/svg">
<path d="M285.776 -23.2575L214.506 3.25132C210.669 4.67847 206.406 2.72667 204.979 -1.11024L178.47 -72.3796C177.043 -76.2165 178.994 -80.4801 182.831 -81.9073L254.101 -108.416C257.938 -109.843 262.201 -107.891 263.628 -104.055L290.137 -32.7852C291.564 -28.9483 289.613 -24.6846 285.776 -23.2575Z" fill="#292929"/>
<path d="M76.7431 175.19C53.2583 183.92 27.1276 171.96 18.3829 148.464C9.64468 124.985 21.6032 98.8659 45.0881 90.1359C68.5729 81.4059 94.7036 93.366 103.442 116.845C112.204 140.334 100.245 166.453 76.7431 175.19Z" fill="#292929"/>
<path d="M72.7934 55.6521L1.59299 82.1194C-2.24022 83.5443 -6.50014 81.5945 -7.92639 77.7623L-34.4185 6.58063C-35.8448 2.74843 -33.8953 -1.50958 -30.0621 -2.93449L41.1383 -29.4018C44.9716 -30.8267 49.2315 -28.8769 50.6577 -25.0447L77.1499 46.137C78.5761 49.9692 76.6266 54.2272 72.7934 55.6521Z" fill="#DBEF06"/>
<path d="M218.703 122.415L147.507 148.881C143.674 150.306 139.414 148.356 137.988 144.524L71.9329 -32.9626C70.5067 -36.7947 72.4561 -41.0525 76.289 -42.4773L147.485 -68.9435C151.318 -70.3683 155.578 -68.4186 157.004 -64.5866L223.059 112.9C224.485 116.732 222.536 120.99 218.703 122.415Z" fill="#292929"/>
<path d="M442.062 36.9385L370.866 63.4046C367.033 64.8294 362.774 62.8797 361.347 59.0477L295.292 -118.439C293.866 -122.271 295.815 -126.529 299.648 -127.954L370.844 -154.42C374.677 -155.845 378.937 -153.895 380.363 -150.063L446.418 27.4238C447.845 31.2558 445.895 35.5136 442.062 36.9385Z" fill="#292929"/>
<path d="M289.444 96.1119C265.959 104.842 239.828 92.8817 231.09 69.403C222.352 45.9243 234.31 19.8053 257.795 11.0753C281.28 2.34534 307.411 14.3055 316.149 37.7842C324.904 61.2564 312.946 87.3754 289.444 96.1119Z" fill="#DBEF06"/>
</svg>
