<svg width="16" height="16" viewBox="0 0 16 16" fill="none" xmlns="http://www.w3.org/2000/svg">
<path fillRule="evenodd" clipRule="evenodd" d="M8.16638 0.666504C8.44161 0.666504 8.68855 0.835648 8.788 1.09229L13.9547 14.4256C14.0572 14.6901 13.9811 14.9904 13.7651 15.1742C13.5491 15.358 13.2404 15.3851 12.9958 15.2416L8.16638 12.4091L3.33698 15.2416C3.09233 15.3851 2.78368 15.358 2.56768 15.1742C2.35167 14.9904 2.2756 14.6901 2.37808 14.4256L7.54475 1.09229C7.6442 0.835648 7.89114 0.666504 8.16638 0.666504ZM4.31253 13.1237L7.8291 11.0611C8.03736 10.939 8.29539 10.939 8.50365 11.0611L12.0202 13.1236L8.16638 3.17825L4.31253 13.1237Z" fill="black" fill-opacity="0.85"/>
</svg>
