<svg width="199" height="265" viewBox="0 0 199 265" fill="none" xmlns="http://www.w3.org/2000/svg">
    <style>
        path{
            transition: fill 1s ease;
        }
        #strokes {
            transition: stroke 1s ease;
        }
    </style>
    <path fillRule="evenodd" clipRule="evenodd"
          d="M144.179 48.7543C155.802 63.0055 164.332 79.5202 169.224 97.2476L159.585 99.9081C156.608 89.1238 152.153 78.7418 146.299 69.0701C133.948 48.6623 115.906 32.305 94.3893 22.0058C72.8726 11.7066 48.817 7.91367 25.1751 11.0927C16.0389 12.3212 7.11806 14.5702 -1.43008 17.7688L-4.93457 8.40298C12.2893 1.95814 30.6662 -0.830694 49.0267 0.213957C67.3872 1.25861 85.3292 6.11386 101.711 14.4708C118.093 22.8276 132.555 34.5032 144.179 48.7543Z"
          fill="#DBEF06"/>


    <path fillRule="evenodd" clipRule="evenodd"
          d="M159.585 99.908L169.225 97.2474C162.764 73.8418 149.997 52.6613 132.317 36.019L125.463 43.3006C133.502 50.8676 140.523 59.5258 146.299 69.0699C152.153 78.7416 156.608 89.1237 159.585 99.908Z"
          fill="#344569"/>
    <path id="strokes" d="M164.97 164.469C164.073 160.219 180.411 153.758 180.015 148.277C179.819 145.832 159.755 143.539 159.778 140.222C159.794 137.581 179.87 135.515 180.115 132.396C180.325 129.672 160.772 124.582 161.213 121.549C161.61 118.814 181.751 119.516 182.409 116.547C183.003 113.818 164.97 105.469 164.47 95.9687"
          stroke="#FC7647" stroke-width="8" stroke-linecap="round" stroke-linejoin="round"/>
    <path fillRule="evenodd" clipRule="evenodd"
          d="M136.191 210.216L143.921 216.56C156.355 201.411 165.273 183.691 170.033 164.68L160.332 162.251C156.664 176.902 150.3 190.821 141.49 203.269C139.803 205.652 138.035 207.969 136.191 210.216Z"
          fill="#7163AC"/>
    <path fillRule="evenodd" clipRule="evenodd"
          d="M89.0229 245.406L92.9024 254.623C113.498 245.954 131.567 232.217 145.428 214.69L137.585 208.487C124.782 224.676 108.082 237.384 89.0229 245.406Z"
          fill="#ACD9D6"/>
    <path fillRule="evenodd" clipRule="evenodd"
          d="M-0.592687 247.541L-4.02881 256.932C12.3119 262.911 29.6702 265.613 47.055 264.883C64.4399 264.154 81.5108 260.007 97.2932 252.681L93.0824 243.61C90.8701 244.637 88.6232 245.6 86.3444 246.497C64.1457 255.229 39.8803 257.29 16.5266 252.427C10.6859 251.211 4.96573 249.575 -0.592687 247.541Z"
          fill="#F5BE4F"/>

    <circle cx="131" cy="131" r="12" fill="#FC7647"/>
</svg>
