<svg width="40" height="40" viewBox="0 0 40 40" fill="none" xmlns="http://www.w3.org/2000/svg">
<rect width="40" height="40" rx="20" fill="white" fill-opacity="0.72"/>
<path d="M27 19H15.14L18.77 14.64C18.9397 14.4358 19.0214 14.1725 18.997 13.9081C18.9726 13.6437 18.8442 13.3998 18.64 13.23C18.4358 13.0603 18.1725 12.9786 17.9081 13.003C17.6437 13.0274 17.3997 13.1558 17.23 13.36L12.23 19.36C12.1964 19.4078 12.1663 19.4579 12.14 19.51C12.14 19.56 12.14 19.59 12.07 19.64C12.0247 19.7547 12.0009 19.8767 12 20C12.0009 20.1233 12.0247 20.2454 12.07 20.36C12.07 20.41 12.07 20.44 12.14 20.49C12.1663 20.5422 12.1964 20.5923 12.23 20.64L17.23 26.64C17.324 26.7529 17.4418 26.8437 17.5748 26.9059C17.7079 26.9681 17.8531 27.0003 18 27C18.2337 27.0005 18.4601 26.9191 18.64 26.77C18.7413 26.6861 18.825 26.583 18.8863 26.4666C18.9477 26.3503 18.9855 26.223 18.9975 26.092C19.0096 25.961 18.9957 25.829 18.9567 25.7034C18.9176 25.5777 18.8542 25.4611 18.77 25.36L15.14 21H27C27.2652 21 27.5196 20.8947 27.7071 20.7071C27.8946 20.5196 28 20.2652 28 20C28 19.7348 27.8946 19.4805 27.7071 19.2929C27.5196 19.1054 27.2652 19 27 19Z" fill="#292929"/>
</svg>
