<svg width="16" height="16" viewBox="0 0 16 16" fill="none" xmlns="http://www.w3.org/2000/svg">
<path d="M5.13098 2.83283C5.57806 2.83283 5.98998 3.07531 6.20704 3.46623L6.95979 4.82218C7.15691 5.17727 7.16617 5.60675 6.98453 5.96997L6.36302 7.2123L6.37256 7.24236L6.43089 7.40721C6.54803 7.71645 6.71103 8.02622 6.92537 8.31301C7.01982 8.43938 7.12251 8.55869 7.23374 8.66992C7.34361 8.77979 7.46126 8.88123 7.58574 8.97455C7.87263 9.18963 8.18243 9.35276 8.49168 9.46958C8.55208 9.4924 8.6073 9.51167 8.65644 9.52767L8.68635 9.53697L9.92982 8.91566C10.257 8.75205 10.6378 8.74331 10.9697 8.88716L11.0783 8.94076L12.4381 9.69673C12.8287 9.91384 13.0709 10.3256 13.0709 10.7725V12.3335C13.0709 13.5491 11.9201 14.4207 10.767 14.0316C8.46233 13.254 6.42061 12.2082 5.05805 10.8456C3.69546 9.48307 2.64972 7.44136 1.87207 5.13665C1.48299 3.98353 2.35457 2.83283 3.57015 2.83283H5.13098ZM5.131 4.0636H3.57015C3.18091 4.0636 2.92358 4.40333 3.03824 4.74316C3.76039 6.88336 4.73062 8.77765 5.92834 9.97535C7.12603 11.1731 9.02032 12.1433 11.1605 12.8654C11.5004 12.9801 11.8401 12.7228 11.8401 12.3335V10.7725L10.4803 10.0165L9.03015 10.7415C8.90924 10.802 8.77179 10.8209 8.63903 10.7955C8.17046 10.7056 7.51025 10.4562 6.84746 9.9593C6.67722 9.83167 6.51542 9.69216 6.36346 9.54021C6.20967 9.38642 6.06855 9.22246 5.93951 9.04981C5.44523 8.38844 5.19576 7.72985 5.10488 7.26259C5.07897 7.12936 5.09783 6.9913 5.15853 6.86989L5.88372 5.41952L5.131 4.0636ZM10.7333 2.01344C11.5362 2.21479 12.2727 2.62859 12.8704 3.22633C13.4682 3.82409 13.882 4.56056 14.0833 5.36351C14.2316 5.95482 14.2615 6.57068 14.1716 7.17353C14.1215 7.50968 13.8084 7.74156 13.4722 7.69145C13.1361 7.64134 12.9042 7.32821 12.9543 6.99206C13.0203 6.54931 12.9983 6.09685 12.8895 5.66285C12.742 5.07451 12.4393 4.53574 12.0001 4.09661C11.561 3.65751 11.0223 3.35479 10.4339 3.20725C9.99994 3.09843 9.54744 3.07649 9.10469 3.14248C8.76854 3.19259 8.45541 2.96071 8.4053 2.62455C8.35519 2.2884 8.58708 1.97527 8.92323 1.92516C9.52608 1.8353 10.142 1.86517 10.7333 2.01344ZM11.1423 4.82147C11.7008 5.37993 11.9504 6.16035 11.8363 6.92642C11.7861 7.26257 11.473 7.49446 11.1369 7.44435C10.8247 7.39781 10.6025 7.1245 10.6124 6.81655L10.6189 6.74495C10.6762 6.36063 10.5517 5.97144 10.272 5.69177C10.0203 5.44002 9.67985 5.31398 9.33414 5.33305L9.21882 5.34481C8.88266 5.39492 8.56954 5.16303 8.51943 4.82688C8.46932 4.49073 8.7012 4.1776 9.03735 4.12749C9.8034 4.01329 10.5838 4.26299 11.1423 4.82147Z" fill="black" fill-opacity="0.85"/>
</svg>
