<svg width="183" height="48" viewBox="0 0 183 48" fill="none" xmlns="http://www.w3.org/2000/svg">
<path d="M70.2067 3.5385C73.1883 3.5385 75.7766 4.02996 77.9718 5.01288C80.1997 5.9958 81.9035 7.40464 83.083 9.23942C84.2625 11.0742 84.8522 13.253 84.8522 15.7758C84.8522 18.2659 84.2625 20.4447 83.083 22.3122C81.9035 24.147 80.1997 25.5559 77.9718 26.5388C75.7766 27.5217 73.1883 28.0132 70.2067 28.0132H62.4417V37.9406H56.0527V3.5385H70.2067ZM69.9119 22.6071C72.6968 22.6071 74.8101 22.0174 76.2517 20.8379C77.6933 19.6584 78.4141 17.971 78.4141 15.7758C78.4141 13.5806 77.6933 11.8933 76.2517 10.7138C74.8101 9.5343 72.6968 8.94455 69.9119 8.94455H62.4417V22.6071H69.9119Z" fill="black"/>
<path d="M87.9453 11.6967H94.0886V37.9406H87.9453V11.6967ZM91.0415 7.37188C89.9276 7.37188 88.9938 7.02786 88.2402 6.33982C87.4866 5.61901 87.1099 4.73439 87.1099 3.68594C87.1099 2.63749 87.4866 1.76925 88.2402 1.08121C88.9938 0.360402 89.9276 0 91.0415 0C92.1555 0 93.0893 0.344021 93.8428 1.03206C94.5964 1.68734 94.9732 2.52282 94.9732 3.5385C94.9732 4.61971 94.5964 5.5371 93.8428 6.29067C93.122 7.01148 92.1883 7.37188 91.0415 7.37188Z" fill="black"/>
<path d="M110.408 26.6862L105.838 31.0111V37.9406H99.6943V1.47437H105.838V23.4917L118.566 11.6967H125.938L114.979 22.7054L126.97 37.9406H119.5L110.408 26.6862Z" fill="black"/>
<path d="M139.195 26.6862L134.624 31.0111V37.9406H128.481V1.47437H134.624V23.4917L147.353 11.6967H154.725L143.765 22.7054L155.757 37.9406H148.287L139.195 26.6862Z" fill="black"/>
<path d="M182.196 11.6967V33.9598C182.196 43.1992 177.659 47.8189 168.583 47.8189C166.191 47.8189 163.898 47.4913 161.703 46.836C159.54 46.2135 157.755 45.2961 156.346 44.0839L159.098 39.4641C160.212 40.4143 161.572 41.1679 163.177 41.7249C164.782 42.2818 166.47 42.5603 168.239 42.5603C170.926 42.5603 172.891 41.9051 174.136 40.5945C175.414 39.3167 176.053 37.3345 176.053 34.6478V33.4192C175.07 34.5004 173.874 35.3359 172.465 35.9256C171.057 36.4826 169.533 36.7611 167.895 36.7611C164.389 36.7611 161.621 35.7946 159.589 33.8615C157.591 31.9284 156.591 29.0288 156.591 25.1627V11.6967H162.735V24.3764C162.735 26.7026 163.259 28.4555 164.307 29.635C165.388 30.7817 166.912 31.3551 168.878 31.3551C171.073 31.3551 172.81 30.6834 174.087 29.3401C175.398 27.9968 176.053 26.0473 176.053 23.4917V11.6967H182.196Z" fill="black"/>
<path d="M13.3579 18.6258H0.806394C0.360861 18.6258 0 18.2431 0 17.7705V4.45829C0 3.98576 0.360861 3.60303 0.806394 3.60303H13.3579C13.8035 3.60303 14.1643 3.98576 14.1643 4.45829V17.7705C14.1643 18.2431 13.8035 18.6258 13.3579 18.6258Z" fill="#DBEF06"/>
<path d="M48.7691 37.5115H36.2175C35.772 37.5115 35.4111 37.1276 35.4111 36.6536V4.46098C35.4111 3.98696 35.772 3.60303 36.2175 3.60303H48.7691C49.2146 3.60303 49.5754 3.98696 49.5754 4.46098V36.6536C49.5754 37.1276 49.2146 37.5115 48.7691 37.5115Z" fill="#DBEF06"/>
<path d="M30.9587 37.5113H0.803654C0.359635 37.5113 0 37.1286 0 36.656V23.3438C0 22.8713 0.359635 22.4885 0.803654 22.4885H30.9587C31.4028 22.4885 31.7624 22.8713 31.7624 23.3438V36.656C31.7624 37.1286 31.4028 37.5113 30.9587 37.5113Z" fill="#DBEF06"/>
<path d="M24.6803 18.8404C20.5323 18.8404 17.1689 15.429 17.1689 11.2217C17.1689 7.01441 20.5323 3.60303 24.6803 3.60303C28.8284 3.60303 32.1917 7.01441 32.1917 11.2217C32.1917 15.429 28.8284 18.8404 24.6803 18.8404Z" fill="#DBEF06"/>
</svg>
