<svg width="80" height="31" viewBox="0 0 80 31" fill="none" xmlns="http://www.w3.org/2000/svg">
<path d="M8.97644 2.29394C10.8673 2.29394 12.5088 2.61254 13.901 3.24974C15.314 3.88695 16.3945 4.80027 17.1425 5.98972C17.8905 7.17917 18.2646 8.59164 18.2646 10.2271C18.2646 11.8414 17.8905 13.2539 17.1425 14.4645C16.3945 15.654 15.314 16.5673 13.901 17.2045C12.5088 17.8417 10.8673 18.1603 8.97644 18.1603H4.05187V24.5961H0V2.29394H8.97644ZM8.78943 14.6557C10.5556 14.6557 11.8959 14.2734 12.8101 13.5087C13.7244 12.7441 14.1815 11.6502 14.1815 10.2271C14.1815 8.80404 13.7244 7.71017 12.8101 6.94553C11.8959 6.18088 10.5556 5.79856 8.78943 5.79856H4.05187V14.6557H8.78943Z" fill="#292929"/>
<path d="M20.2262 7.58273H24.1222V24.5961H20.2262V7.58273ZM22.1898 4.77903C21.4833 4.77903 20.8911 4.55601 20.4132 4.10997C19.9353 3.64269 19.6964 3.0692 19.6964 2.38952C19.6964 1.70983 19.9353 1.14697 20.4132 0.700924C20.8911 0.233641 21.4833 0 22.1898 0C22.8963 0 23.4885 0.223021 23.9664 0.669064C24.4443 1.09387 24.6833 1.63549 24.6833 2.29394C24.6833 2.99486 24.4443 3.58958 23.9664 4.07811C23.5093 4.54539 22.9171 4.77903 22.1898 4.77903Z" fill="#292929"/>
<path d="M34.472 17.3001L31.5734 20.1038V24.5961H27.6774V0.955806H31.5734V15.2292L39.6459 7.58273H44.3212L37.3707 14.7194L44.9757 24.5961H40.2381L34.472 17.3001Z" fill="#292929"/>
<path d="M52.7285 17.3001L49.8299 20.1038V24.5961H45.9339V0.955806H49.8299V15.2292L57.9025 7.58273H62.5777L55.6272 14.7194L63.2322 24.5961H58.4947L52.7285 17.3001Z" fill="#292929"/>
<path d="M80 7.58273V22.0154C80 28.0051 77.1221 31 71.3664 31C69.8495 31 68.395 30.7876 67.0029 30.3628C65.6315 29.9592 64.499 29.3645 63.6055 28.5786L65.3509 25.5838C66.0574 26.1997 66.9197 26.6883 67.9379 27.0493C68.9561 27.4104 70.0262 27.591 71.1482 27.591C72.8521 27.591 74.0988 27.1662 74.8884 26.3165C75.6988 25.4882 76.104 24.2032 76.104 22.4615V21.665C75.4806 22.3659 74.7222 22.9075 73.8287 23.2898C72.9352 23.6509 71.969 23.8315 70.93 23.8315C68.7067 23.8315 66.9509 23.2049 65.6626 21.9517C64.3951 20.6985 63.7614 18.8188 63.7614 16.3124V7.58273H67.6574V15.8027C67.6574 17.3107 67.9898 18.4471 68.6548 19.2117C69.3405 19.9551 70.3067 20.3268 71.5534 20.3268C72.9456 20.3268 74.0469 19.8914 74.8572 19.0206C75.6884 18.1497 76.104 16.8859 76.104 15.2292V7.58273H80Z" fill="#292929"/>
</svg>
