<?xml version="1.0" encoding="iso-8859-1"?>
<!-- Generator: Adobe Illustrator 19.0.0, SVG Export Plug-In . SVG Version: 6.00 Build 0)  -->
<svg version="1.1" id="Capa_1" xmlns="http://www.w3.org/2000/svg" x="0px" y="0px"
     viewBox="0 0 489.533 489.533" style="enable-background:new 0 0 489.533 489.533;" xml:space="preserve">
	<filter id="static_blur" x="-50%" y="-50%" width="200%" height="200%"
            filterUnits="userSpaceOnUse">
                <feGaussianBlur in="SourceGraphic" stdDeviation="1"/>
            </filter>

    <filter id="neon_glow" x="-50%" y="-50%" width="200%" height="200%"
            filterUnits="userSpaceOnUse">
                <feGaussianBlur in="SourceGraphic" stdDeviation="10"/>
            </filter>
    <g id="line-path-1" stroke="none" stroke-width="8" fill="none" fillRule="evenodd">
                <g id="Static_F1" transform="translate(1.000000, 1.000000)" stroke="#DAEF04">
                    <g id="Yellow_Letters_Glow" filter="url(#neon_glow)" stroke="#DAEF04"
                    >
                        <path stroke-width="30"
                              d="M268.175,488.161c98.2-11,176.9-89.5,188.1-187.7c14.7-128.4-85.1-237.7-210.2-239.1v-57.6c0-3.2-4-4.9-6.7-2.9
		l-118.6,87.1c-2,1.5-2,4.4,0,5.9l118.6,87.1c2.7,2,6.7,0.2,6.7-2.9v-57.5c87.9,1.4,158.3,76.2,152.3,165.6
		c-5.1,76.9-67.8,139.3-144.7,144.2c-81.5,5.2-150.8-53-163.2-130c-2.3-14.3-14.8-24.7-29.2-24.7c-17.9,0-31.9,15.9-29.1,33.6
		C49.575,418.961,150.875,501.261,268.175,488.161z"
                              id="H"/>
                    </g>
                </g>
            </g>
    <g stroke="none" stroke-width="6" fill="none" fillRule="evenodd">
                <g id="Static_F1" transform="translate(1.000000, 1.000000)" stroke="#DAEF04">
                    <g id="Yellow_Letters" filter="url(#static_blur)" stroke="#DAEF04"
                    >
                        <path stroke-width="20" d="M268.175,488.161c98.2-11,176.9-89.5,188.1-187.7c14.7-128.4-85.1-237.7-210.2-239.1v-57.6c0-3.2-4-4.9-6.7-2.9
		l-118.6,87.1c-2,1.5-2,4.4,0,5.9l118.6,87.1c2.7,2,6.7,0.2,6.7-2.9v-57.5c87.9,1.4,158.3,76.2,152.3,165.6
		c-5.1,76.9-67.8,139.3-144.7,144.2c-81.5,5.2-150.8-53-163.2-130c-2.3-14.3-14.8-24.7-29.2-24.7c-17.9,0-31.9,15.9-29.1,33.6
		C49.575,418.961,150.875,501.261,268.175,488.161z" id="H"/>
                    </g>
                </g>
            </g>
</svg>
