<svg width="32" height="32" viewBox="0 0 32 32" fill="none" xmlns="http://www.w3.org/2000/svg">
<path d="M28.381 16.286C28.381 23.1238 22.8379 28.667 16.0001 28.667C9.16228 28.667 3.61914 23.1238 3.61914 16.286C3.61914 9.44823 9.16228 3.90508 16.0001 3.90508C22.8379 3.90508 28.381 9.44823 28.381 16.286Z" fill="#DBEF06"/>
<path fillRule="evenodd" clipRule="evenodd" d="M8.43578 2.28021C8.64935 2.54718 8.60607 2.93674 8.3391 3.15032L5.24386 5.62651C4.97689 5.84008 4.58733 5.7968 4.37375 5.52983C4.16017 5.26286 4.20346 4.87329 4.47043 4.65972L7.56566 2.18353C7.83264 1.96995 8.2222 2.01323 8.43578 2.28021ZM23.5642 2.28021C23.7778 2.01323 24.1674 1.96995 24.4343 2.18353L27.5296 4.65972C27.7965 4.87329 27.8398 5.26286 27.6263 5.52983C27.4127 5.7968 27.0231 5.84008 26.7561 5.62651L23.6609 3.15032C23.3939 2.93674 23.3506 2.54718 23.5642 2.28021ZM16 4.52406C9.50408 4.52406 4.2381 9.79005 4.2381 16.286C4.2381 22.7819 9.50408 28.0479 16 28.0479C22.4959 28.0479 27.7619 22.7819 27.7619 16.286C27.7619 9.79005 22.4959 4.52406 16 4.52406ZM3 16.286C3 9.10627 8.8203 3.28597 16 3.28597C23.1797 3.28597 29 9.10627 29 16.286C29 23.4657 23.1797 29.286 16 29.286C8.8203 29.286 3 23.4657 3 16.286ZM16 10.7145C16.3419 10.7145 16.6191 10.9917 16.6191 11.3336V16.5408C16.6191 17.0145 16.8 17.4702 17.1249 17.8148L18.9266 19.7258C19.1611 19.9746 19.1496 20.3664 18.9009 20.6009C18.6521 20.8354 18.2603 20.8239 18.0258 20.5751L16.2241 18.6641C15.6826 18.0898 15.381 17.3302 15.381 16.5408V11.3336C15.381 10.9917 15.6581 10.7145 16 10.7145Z" fill="#292929"/>
</svg>
