<svg width="22" height="22" viewBox="0 0 22 22" fill="none" xmlns="http://www.w3.org/2000/svg">
<path fillRule="evenodd" clipRule="evenodd" d="M16.4999 8.25C17.0062 8.25 17.4166 8.66041 17.4166 9.16667V18.3333C17.4166 18.8396 17.0062 19.25 16.4999 19.25C15.9937 19.25 15.5833 18.8396 15.5833 18.3333V9.16667C15.5833 8.66041 15.9937 8.25 16.4999 8.25Z" fill="black"/>
<path fillRule="evenodd" clipRule="evenodd" d="M10.9999 2.75C11.5062 2.75 11.9166 3.16041 11.9166 3.66667V18.3333C11.9166 18.8396 11.5062 19.25 10.9999 19.25C10.4937 19.25 10.0833 18.8396 10.0833 18.3333V3.66667C10.0833 3.16041 10.4937 2.75 10.9999 2.75Z" fill="black"/>
<path fillRule="evenodd" clipRule="evenodd" d="M5.49992 11.9165C6.00618 11.9165 6.41658 12.3269 6.41658 12.8332V18.3332C6.41658 18.8394 6.00618 19.2498 5.49992 19.2498C4.99366 19.2498 4.58325 18.8394 4.58325 18.3332V12.8332C4.58325 12.3269 4.99366 11.9165 5.49992 11.9165Z" fill="black"/>
</svg>
