<svg width="12" height="10" viewBox="0 0 12 10" fill="none" xmlns="http://www.w3.org/2000/svg">
    <path d="M10.6666 4.33335H2.75996L5.17996 1.42669C5.29312 1.29054 5.34756 1.11502 5.33131 0.938739C5.31505 0.762454 5.22944 0.599847 5.09329 0.486688C4.95715 0.373529 4.78163 0.319087 4.60534 0.335341C4.42906 0.351594 4.26645 0.43721 4.15329 0.573354L0.819959 4.57335C0.797533 4.60517 0.777479 4.63859 0.759959 4.67335C0.759959 4.70669 0.759959 4.72669 0.713293 4.76002C0.683075 4.83646 0.667253 4.91783 0.666626 5.00002C0.667253 5.08221 0.683075 5.16358 0.713293 5.24002C0.713293 5.27335 0.713293 5.29335 0.759959 5.32669C0.777479 5.36145 0.797533 5.39487 0.819959 5.42669L4.15329 9.42669C4.21597 9.50194 4.29447 9.56246 4.38319 9.60394C4.47191 9.64542 4.56869 9.66685 4.66663 9.66669C4.82239 9.66699 4.97335 9.61274 5.09329 9.51336C5.1608 9.45739 5.2166 9.38865 5.2575 9.31109C5.2984 9.23352 5.3236 9.14865 5.33165 9.06134C5.3397 8.97402 5.33045 8.88597 5.30442 8.80223C5.27839 8.7185 5.23609 8.64072 5.17996 8.57335L2.75996 5.66669H10.6666C10.8434 5.66669 11.013 5.59645 11.138 5.47143C11.2631 5.3464 11.3333 5.17683 11.3333 5.00002C11.3333 4.82321 11.2631 4.65364 11.138 4.52862C11.013 4.40359 10.8434 4.33335 10.6666 4.33335Z" fill="black"/>
</svg>
