<svg width="12" height="10" viewBox="0 0 12 10" fill="none" xmlns="http://www.w3.org/2000/svg">
<path d="M10.667 4.33287H2.76033L5.18033 1.4262C5.29349 1.29005 5.34793 1.11453 5.33167 0.93825C5.31542 0.761966 5.2298 0.599358 5.09366 0.486199C4.95751 0.37304 4.78199 0.318599 4.60571 0.334852C4.42943 0.351105 4.26682 0.436722 4.15366 0.572866L0.820326 4.57287C0.797899 4.60468 0.777845 4.63811 0.760325 4.67287C0.760325 4.7062 0.760326 4.7262 0.713659 4.75953C0.683441 4.83597 0.66762 4.91734 0.666992 4.99953C0.66762 5.08173 0.683441 5.16309 0.713659 5.23953C0.713659 5.27287 0.713659 5.29287 0.760325 5.3262C0.777845 5.36096 0.797899 5.39438 0.820326 5.4262L4.15366 9.4262C4.21634 9.50145 4.29483 9.56197 4.38356 9.60346C4.47228 9.64494 4.56905 9.66636 4.66699 9.6662C4.82276 9.6665 4.97372 9.61225 5.09366 9.51287C5.16116 9.4569 5.21697 9.38817 5.25787 9.3106C5.29877 9.23304 5.32397 9.14817 5.33202 9.06085C5.34007 8.97353 5.33081 8.88548 5.30478 8.80175C5.27875 8.71801 5.23646 8.64023 5.18033 8.57287L2.76033 5.6662H10.667C10.8438 5.6662 11.0134 5.59596 11.1384 5.47094C11.2634 5.34591 11.3337 5.17634 11.3337 4.99953C11.3337 4.82272 11.2634 4.65315 11.1384 4.52813C11.0134 4.4031 10.8438 4.33287 10.667 4.33287Z" fill="#292929"/>
</svg>
