<svg width="20" height="20" viewBox="0 0 20 20" fill="none" xmlns="http://www.w3.org/2000/svg">
<path d="M1.66699 6.9069C1.66699 5.98643 2.41318 5.24023 3.33366 5.24023H16.4989C17.4194 5.24023 18.1656 5.98643 18.1656 6.9069V15.4169C18.1656 16.3374 17.4194 17.0835 16.4989 17.0835H3.33366C2.41319 17.0835 1.66699 16.3374 1.66699 15.4169V6.9069Z" fill="#DBEF06"/>
<path fillRule="evenodd" clipRule="evenodd" d="M16.4989 6.07357H3.33366C2.87342 6.07357 2.50033 6.44666 2.50033 6.9069V15.4169C2.50033 15.8771 2.87342 16.2502 3.33366 16.2502H16.4989C16.9591 16.2502 17.3322 15.8771 17.3322 15.4169V6.9069C17.3322 6.44666 16.9591 6.07357 16.4989 6.07357ZM3.33366 5.24023C2.41318 5.24023 1.66699 5.98643 1.66699 6.9069V15.4169C1.66699 16.3374 2.41319 17.0835 3.33366 17.0835H16.4989C17.4194 17.0835 18.1656 16.3374 18.1656 15.4169V6.9069C18.1656 5.98643 17.4194 5.24023 16.4989 5.24023H3.33366Z" fill="#292929"/>
<path d="M5.5957 3.95801C5.5957 3.61283 5.87553 3.33301 6.2207 3.33301H13.6134C13.9586 3.33301 14.2384 3.61283 14.2384 3.95801C14.2384 4.30319 13.9586 4.58301 13.6134 4.58301H6.2207C5.87552 4.58301 5.5957 4.30319 5.5957 3.95801Z" fill="#292929"/>
</svg>
