<svg width="22" height="22" viewBox="0 0 22 22" fill="none" xmlns="http://www.w3.org/2000/svg">
<path fillRule="evenodd" clipRule="evenodd" d="M6.41675 3.66683C6.17363 3.66683 5.94047 3.76341 5.76857 3.93531C5.59666 4.10722 5.50008 4.34038 5.50008 4.5835V17.4689L10.4673 13.9209C10.786 13.6932 11.2142 13.6932 11.5329 13.9209L16.5001 17.4689V4.5835C16.5001 4.34038 16.4035 4.10722 16.2316 3.93531C16.0597 3.76341 15.8265 3.66683 15.5834 3.66683H6.41675ZM4.4722 2.63895C4.98793 2.12323 5.6874 1.8335 6.41675 1.8335H15.5834C16.3128 1.8335 17.0122 2.12323 17.528 2.63895C18.0437 3.15468 18.3334 3.85415 18.3334 4.5835V19.2502C18.3334 19.5935 18.1415 19.9081 17.8362 20.0652C17.5309 20.2224 17.1634 20.1957 16.8839 19.9961L11.0001 15.7933L5.11622 19.9961C4.8368 20.1957 4.46928 20.2224 4.16396 20.0652C3.85865 19.9081 3.66675 19.5935 3.66675 19.2502V4.5835C3.66675 3.85415 3.95648 3.15468 4.4722 2.63895Z" fill="black"/>
</svg>
