<svg width="32" height="32" viewBox="0 0 32 32" fill="none" xmlns="http://www.w3.org/2000/svg">
<path d="M0 16C0 7.16344 7.16344 0 16 0C24.8366 0 32 7.16344 32 16C32 24.8366 24.8366 32 16 32C7.16344 32 0 24.8366 0 16Z" fill="white"/>
<path d="M21.8933 11.0731C21.5528 10.7324 21.1485 10.4622 20.7036 10.2778C20.2586 10.0934 19.7817 9.99854 19.3 9.99854C18.8183 9.99854 18.3414 10.0934 17.8964 10.2778C17.4515 10.4622 17.0472 10.7324 16.7067 11.0731L16 11.7798L15.2933 11.0731C14.6055 10.3853 13.6727 9.99889 12.7 9.99889C11.7273 9.99889 10.7945 10.3853 10.1067 11.0731C9.41887 11.7609 9.03247 12.6937 9.03247 13.6664C9.03247 14.6391 9.41887 15.572 10.1067 16.2598L10.8133 16.9664L16 22.1531L21.1867 16.9664L21.8933 16.2598C22.234 15.9192 22.5042 15.515 22.6886 15.07C22.873 14.625 22.9679 14.1481 22.9679 13.6664C22.9679 13.1848 22.873 12.7078 22.6886 12.2628C22.5042 11.8179 22.234 11.4136 21.8933 11.0731V11.0731Z" stroke="black" stroke-width="1.5" stroke-linecap="round" stroke-linejoin="round"/>
</svg>
