<svg width="22" height="22" viewBox="0 0 22 22" fill="none" xmlns="http://www.w3.org/2000/svg">
    <path fillRule="evenodd" clipRule="evenodd" d="M21.9756 0.78046C22.0968 1.31927 21.7583 1.85435 21.2195 1.97558L16 3.14997V9.99997H21C21.5523 9.99997 22 10.4477 22 11C22 13.9569 21.1064 16.7171 19.2355 18.7485C17.3522 20.7933 14.5698 22 11 22C7.43014 22 4.6477 20.7933 2.76441 18.7485C0.893524 16.7171 -2.7455e-05 13.9569 -2.7455e-05 11C-2.7455e-05 10.4477 0.447688 9.99997 0.999973 9.99997H1.99997V6.29997L1.21948 6.47558C0.68067 6.59682 0.145596 6.2583 0.0243628 5.71948C-0.0968705 5.18067 0.241646 4.6456 0.78046 4.52436L1.99997 4.24997V3.99997C1.99997 3.44769 2.44769 2.99997 2.99997 2.99997C3.48528 2.99997 3.88985 3.34569 3.98083 3.80428L5.99997 3.34997V2.99997C5.99997 2.44769 6.44769 1.99997 6.99997 1.99997C7.51888 1.99997 7.94547 2.39521 7.99514 2.90106L9.99997 2.44997V1.99997C9.99997 1.44769 10.4477 0.999973 11 0.999973C11.5523 0.999973 12 1.44769 12 1.99997L14 1.54997V0.999973C14 0.447688 14.4477 -2.7455e-05 15 -2.7455e-05C15.5523 -2.7455e-05 16 0.447688 16 0.999973V1.09997L20.7805 0.0243628C21.3193 -0.0968705 21.8543 0.241646 21.9756 0.78046ZM14 3.59997L12 4.04997V9.99997H14V3.59997ZM2.04033 12C2.21648 14.1468 2.96647 16.0157 4.23555 17.3936C5.68559 18.968 7.90315 20 11 20C14.0968 20 16.3144 18.968 17.7644 17.3936C19.0335 16.0157 19.7835 14.1468 19.9596 12H2.04033ZM3.99997 9.99997H5.99997V5.39997L3.99997 5.84997V9.99997ZM7.99997 4.94997V9.99997H9.99997V4.49997L7.99997 4.94997Z" fill="black" fill-opacity="0.85"/>
</svg>
