<svg width="360" height="288" viewBox="0 0 360 288" fill="none" xmlns="http://www.w3.org/2000/svg">
<g filter="url(#filter0_ddd_2813:48220)">
<mask id="mask0_2813:48220" style="mask-type:alpha" maskUnits="userSpaceOnUse" x="24" y="7" width="312" height="122">
<path d="M24 15C24 10.5817 27.5817 7 32 7H328C332.418 7 336 10.5817 336 15V121C336 125.418 332.418 129 328 129H32C27.5817 129 24 125.418 24 121V15Z" fill="#F7F7F7"/>
</mask>
<g mask="url(#mask0_2813:48220)">
<g clip-path="url(#clip0_2813:48220)">
<path d="M128 129L40 129C31.1634 129 24 121.837 24 113L24 23C24 14.1634 31.1635 7 40 7L128 7.00001L128 129Z" fill="#F6BF50"/>
<circle r="112" transform="matrix(1 8.88798e-08 8.59896e-08 -1 136 121)" fill="#815FED"/>
<circle r="112" transform="matrix(1 8.88798e-08 8.59896e-08 -1 136 119)" fill="#344569"/>
</g>
<g clip-path="url(#clip1_2813:48220)">
<rect x="128" y="7" width="104" height="122" fill="#815FED"/>
<path d="M232 7.00001L128 129L128 6.99999L232 7.00001Z" fill="#C89FEB"/>
</g>
<g clip-path="url(#clip2_2813:48220)">
<path d="M232 7L320 7C328.837 7 336 14.1634 336 23V113C336 121.837 328.837 129 320 129H232L232 7Z" fill="#F6BF50"/>
<ellipse rx="111" ry="111" transform="matrix(-1 0 0 1 225 18)" fill="#344569"/>
</g>
<path d="M81.3648 70.224V68.512H84.3728V65.744H86.1168V68.512H89.1088V70.224H86.1168V72.992H84.3728V70.224H81.3648ZM99.9881 74.192C98.8575 74.192 97.8868 73.952 97.0761 73.472C96.2655 72.9813 95.6415 72.304 95.2041 71.44C94.7668 70.5653 94.5481 69.5573 94.5481 68.416C94.5481 67.2747 94.7668 66.2667 95.2041 65.392C95.6415 64.5173 96.2655 63.8347 97.0761 63.344C97.8868 62.8533 98.8575 62.608 99.9881 62.608C101.332 62.608 102.431 62.944 103.284 63.616C104.148 64.2773 104.687 65.2107 104.9 66.416H102.644C102.505 65.808 102.207 65.3333 101.748 64.992C101.3 64.64 100.703 64.464 99.9561 64.464C98.9215 64.464 98.1108 64.816 97.5241 65.52C96.9375 66.224 96.6441 67.1893 96.6441 68.416C96.6441 69.6427 96.9375 70.608 97.5241 71.312C98.1108 72.0053 98.9215 72.352 99.9561 72.352C100.703 72.352 101.3 72.192 101.748 71.872C102.207 71.5413 102.505 71.088 102.644 70.512H104.9C104.687 71.664 104.148 72.5653 103.284 73.216C102.431 73.8667 101.332 74.192 99.9881 74.192ZM106.665 74V66.064H108.489L108.681 67.552C108.969 67.04 109.358 66.6347 109.849 66.336C110.35 66.0267 110.937 65.872 111.609 65.872V68.032H111.033C110.585 68.032 110.185 68.1013 109.833 68.24C109.481 68.3787 109.204 68.6187 109.001 68.96C108.809 69.3013 108.713 69.776 108.713 70.384V74H106.665ZM116.724 74.192C115.924 74.192 115.215 74.0213 114.596 73.68C113.977 73.3387 113.492 72.8587 113.14 72.24C112.788 71.6213 112.612 70.9067 112.612 70.096C112.612 69.2747 112.783 68.544 113.124 67.904C113.476 67.264 113.956 66.768 114.564 66.416C115.183 66.0533 115.908 65.872 116.74 65.872C117.519 65.872 118.207 66.0427 118.804 66.384C119.401 66.7253 119.865 67.1947 120.196 67.792C120.537 68.3787 120.708 69.0347 120.708 69.76C120.708 69.8773 120.703 70 120.692 70.128C120.692 70.256 120.687 70.3893 120.676 70.528H114.644C114.687 71.1467 114.9 71.632 115.284 71.984C115.679 72.336 116.153 72.512 116.708 72.512C117.124 72.512 117.471 72.4213 117.748 72.24C118.036 72.048 118.249 71.8027 118.388 71.504H120.468C120.319 72.0053 120.068 72.464 119.716 72.88C119.375 73.2853 118.948 73.6053 118.436 73.84C117.935 74.0747 117.364 74.192 116.724 74.192ZM116.74 67.536C116.239 67.536 115.796 67.68 115.412 67.968C115.028 68.2453 114.783 68.672 114.676 69.248H118.628C118.596 68.7253 118.404 68.3093 118.052 68C117.7 67.6907 117.263 67.536 116.74 67.536ZM125.167 74.192C124.484 74.192 123.924 74.0853 123.487 73.872C123.049 73.648 122.724 73.3547 122.511 72.992C122.297 72.6293 122.191 72.2293 122.191 71.792C122.191 71.056 122.479 70.4587 123.055 70C123.631 69.5413 124.495 69.312 125.647 69.312H127.663V69.12C127.663 68.576 127.508 68.176 127.199 67.92C126.889 67.664 126.505 67.536 126.047 67.536C125.631 67.536 125.268 67.6373 124.959 67.84C124.649 68.032 124.457 68.32 124.383 68.704H122.383C122.436 68.128 122.628 67.6267 122.959 67.2C123.3 66.7733 123.737 66.448 124.271 66.224C124.804 65.9893 125.401 65.872 126.063 65.872C127.193 65.872 128.084 66.1547 128.735 66.72C129.385 67.2853 129.711 68.0853 129.711 69.12V74H127.967L127.775 72.72C127.54 73.1467 127.209 73.4987 126.783 73.776C126.367 74.0533 125.828 74.192 125.167 74.192ZM125.631 72.592C126.217 72.592 126.671 72.4 126.991 72.016C127.321 71.632 127.529 71.1573 127.615 70.592H125.871C125.327 70.592 124.937 70.6933 124.703 70.896C124.468 71.088 124.351 71.328 124.351 71.616C124.351 71.9253 124.468 72.1653 124.703 72.336C124.937 72.5067 125.247 72.592 125.631 72.592ZM135.092 74C134.26 74 133.593 73.7973 133.092 73.392C132.59 72.9867 132.34 72.2667 132.34 71.232V67.776H130.98V66.064H132.34L132.58 63.936H134.388V66.064H136.532V67.776H134.388V71.248C134.388 71.632 134.468 71.8987 134.628 72.048C134.798 72.1867 135.086 72.256 135.492 72.256H136.484V74H135.092ZM141.943 74.192C141.143 74.192 140.434 74.0213 139.815 73.68C139.196 73.3387 138.711 72.8587 138.359 72.24C138.007 71.6213 137.831 70.9067 137.831 70.096C137.831 69.2747 138.002 68.544 138.343 67.904C138.695 67.264 139.175 66.768 139.783 66.416C140.402 66.0533 141.127 65.872 141.959 65.872C142.738 65.872 143.426 66.0427 144.023 66.384C144.62 66.7253 145.084 67.1947 145.415 67.792C145.756 68.3787 145.927 69.0347 145.927 69.76C145.927 69.8773 145.922 70 145.911 70.128C145.911 70.256 145.906 70.3893 145.895 70.528H139.863C139.906 71.1467 140.119 71.632 140.503 71.984C140.898 72.336 141.372 72.512 141.927 72.512C142.343 72.512 142.69 72.4213 142.967 72.24C143.255 72.048 143.468 71.8027 143.607 71.504H145.687C145.538 72.0053 145.287 72.464 144.935 72.88C144.594 73.2853 144.167 73.6053 143.655 73.84C143.154 74.0747 142.583 74.192 141.943 74.192ZM141.959 67.536C141.458 67.536 141.015 67.68 140.631 67.968C140.247 68.2453 140.002 68.672 139.895 69.248H143.847C143.815 68.7253 143.623 68.3093 143.271 68C142.919 67.6907 142.482 67.536 141.959 67.536ZM154.406 74V70.016L150.646 62.8H152.966L155.446 67.968L157.91 62.8H160.198L156.454 70.016V74H154.406ZM163.848 74.192C163.08 74.192 162.387 74.016 161.768 73.664C161.16 73.312 160.675 72.8267 160.312 72.208C159.96 71.5787 159.784 70.8533 159.784 70.032C159.784 69.2107 159.965 68.4907 160.328 67.872C160.691 67.2427 161.176 66.752 161.784 66.4C162.403 66.048 163.096 65.872 163.864 65.872C164.621 65.872 165.304 66.048 165.912 66.4C166.531 66.752 167.016 67.2427 167.368 67.872C167.731 68.4907 167.912 69.2107 167.912 70.032C167.912 70.8533 167.731 71.5787 167.368 72.208C167.016 72.8267 166.531 73.312 165.912 73.664C165.293 74.016 164.605 74.192 163.848 74.192ZM163.848 72.416C164.381 72.416 164.845 72.2187 165.24 71.824C165.635 71.4187 165.832 70.8213 165.832 70.032C165.832 69.2427 165.635 68.6507 165.24 68.256C164.845 67.8507 164.387 67.648 163.864 67.648C163.32 67.648 162.851 67.8507 162.456 68.256C162.072 68.6507 161.88 69.2427 161.88 70.032C161.88 70.8213 162.072 71.4187 162.456 71.824C162.851 72.2187 163.315 72.416 163.848 72.416ZM172.719 74.192C171.727 74.192 170.959 73.8827 170.415 73.264C169.882 72.6453 169.615 71.7387 169.615 70.544V66.064H171.647V70.352C171.647 71.0347 171.786 71.5573 172.063 71.92C172.34 72.2827 172.778 72.464 173.375 72.464C173.94 72.464 174.404 72.2613 174.767 71.856C175.14 71.4507 175.327 70.8853 175.327 70.16V66.064H177.375V74H175.567L175.407 72.656C175.162 73.1253 174.804 73.4987 174.335 73.776C173.876 74.0533 173.338 74.192 172.719 74.192ZM179.478 74V66.064H181.302L181.494 67.552C181.782 67.04 182.171 66.6347 182.661 66.336C183.163 66.0267 183.75 65.872 184.422 65.872V68.032H183.846C183.398 68.032 182.998 68.1013 182.646 68.24C182.294 68.3787 182.016 68.6187 181.814 68.96C181.622 69.3013 181.526 69.776 181.526 70.384V74H179.478ZM194.93 74.192C193.81 74.192 192.828 73.9467 191.986 73.456C191.154 72.9653 190.498 72.288 190.018 71.424C189.548 70.5493 189.314 69.5413 189.314 68.4C189.314 67.2587 189.548 66.256 190.018 65.392C190.498 64.5173 191.154 63.8347 191.986 63.344C192.828 62.8533 193.81 62.608 194.93 62.608C196.039 62.608 197.015 62.8533 197.858 63.344C198.7 63.8347 199.356 64.5173 199.826 65.392C200.295 66.256 200.53 67.2587 200.53 68.4C200.53 69.5413 200.295 70.5493 199.826 71.424C199.356 72.288 198.7 72.9653 197.858 73.456C197.015 73.9467 196.039 74.192 194.93 74.192ZM194.93 72.352C195.996 72.352 196.844 72 197.474 71.296C198.114 70.592 198.434 69.6267 198.434 68.4C198.434 67.1733 198.114 66.208 197.474 65.504C196.844 64.8 195.996 64.448 194.93 64.448C193.863 64.448 193.01 64.8 192.37 65.504C191.73 66.208 191.41 67.1733 191.41 68.4C191.41 69.6267 191.73 70.592 192.37 71.296C193.01 72 193.863 72.352 194.93 72.352ZM203.842 74L201.522 66.064H203.554L204.93 71.776L206.53 66.064H208.802L210.402 71.776L211.794 66.064H213.826L211.49 74H209.362L207.666 68.064L205.97 74H203.842ZM215.118 74V66.064H216.926L217.086 67.408C217.331 66.9387 217.683 66.5653 218.142 66.288C218.611 66.0107 219.161 65.872 219.79 65.872C220.771 65.872 221.534 66.1813 222.078 66.8C222.622 67.4187 222.894 68.3253 222.894 69.52V74H220.846V69.712C220.846 69.0293 220.707 68.5067 220.43 68.144C220.153 67.7813 219.721 67.6 219.134 67.6C218.558 67.6 218.083 67.8027 217.71 68.208C217.347 68.6133 217.166 69.1787 217.166 69.904V74H215.118ZM228.713 74V62.8H232.825C233.721 62.8 234.457 62.9547 235.033 63.264C235.62 63.5627 236.057 63.9733 236.345 64.496C236.633 65.008 236.777 65.5787 236.777 66.208C236.777 66.8907 236.596 67.5147 236.233 68.08C235.881 68.6453 235.326 69.056 234.569 69.312L236.889 74H234.537L232.457 69.584H230.761V74H228.713ZM230.761 68.08H232.697C233.38 68.08 233.881 67.9147 234.201 67.584C234.521 67.2533 234.681 66.816 234.681 66.272C234.681 65.7387 234.521 65.312 234.201 64.992C233.892 64.672 233.385 64.512 232.681 64.512H230.761V68.08ZM242.005 74.192C241.205 74.192 240.496 74.0213 239.877 73.68C239.259 73.3387 238.773 72.8587 238.421 72.24C238.069 71.6213 237.893 70.9067 237.893 70.096C237.893 69.2747 238.064 68.544 238.405 67.904C238.757 67.264 239.237 66.768 239.845 66.416C240.464 66.0533 241.189 65.872 242.021 65.872C242.8 65.872 243.488 66.0427 244.085 66.384C244.683 66.7253 245.147 67.1947 245.477 67.792C245.819 68.3787 245.989 69.0347 245.989 69.76C245.989 69.8773 245.984 70 245.973 70.128C245.973 70.256 245.968 70.3893 245.957 70.528H239.925C239.968 71.1467 240.181 71.632 240.565 71.984C240.96 72.336 241.435 72.512 241.989 72.512C242.405 72.512 242.752 72.4213 243.029 72.24C243.317 72.048 243.531 71.8027 243.669 71.504H245.749C245.6 72.0053 245.349 72.464 244.997 72.88C244.656 73.2853 244.229 73.6053 243.717 73.84C243.216 74.0747 242.645 74.192 242.005 74.192ZM242.021 67.536C241.52 67.536 241.077 67.68 240.693 67.968C240.309 68.2453 240.064 68.672 239.957 69.248H243.909C243.877 68.7253 243.685 68.3093 243.333 68C242.981 67.6907 242.544 67.536 242.021 67.536ZM251.6 74.192C250.789 74.192 250.075 74.016 249.456 73.664C248.837 73.312 248.347 72.8213 247.984 72.192C247.632 71.5627 247.456 70.8427 247.456 70.032C247.456 69.2213 247.632 68.5013 247.984 67.872C248.347 67.2427 248.837 66.752 249.456 66.4C250.075 66.048 250.789 65.872 251.6 65.872C252.613 65.872 253.467 66.1387 254.16 66.672C254.853 67.1947 255.296 67.92 255.488 68.848H253.328C253.221 68.464 253.008 68.1653 252.688 67.952C252.379 67.728 252.011 67.616 251.584 67.616C251.019 67.616 250.539 67.8293 250.144 68.256C249.749 68.6827 249.552 69.2747 249.552 70.032C249.552 70.7893 249.749 71.3813 250.144 71.808C250.539 72.2347 251.019 72.448 251.584 72.448C252.011 72.448 252.379 72.3413 252.688 72.128C253.008 71.9147 253.221 71.6107 253.328 71.216H255.488C255.296 72.112 254.853 72.832 254.16 73.376C253.467 73.92 252.613 74.192 251.6 74.192ZM258.41 64.832C258.036 64.832 257.727 64.72 257.482 64.496C257.247 64.272 257.13 63.9893 257.13 63.648C257.13 63.3067 257.247 63.0293 257.482 62.816C257.727 62.592 258.036 62.48 258.41 62.48C258.783 62.48 259.087 62.592 259.322 62.816C259.567 63.0293 259.69 63.3067 259.69 63.648C259.69 63.9893 259.567 64.272 259.322 64.496C259.087 64.72 258.783 64.832 258.41 64.832ZM257.386 74V66.064H259.434V74H257.386ZM261.571 77.52V66.064H263.395L263.619 67.2C263.875 66.848 264.211 66.5387 264.627 66.272C265.054 66.0053 265.603 65.872 266.275 65.872C267.022 65.872 267.689 66.0533 268.275 66.416C268.862 66.7787 269.326 67.2747 269.667 67.904C270.009 68.5333 270.179 69.248 270.179 70.048C270.179 70.848 270.009 71.5627 269.667 72.192C269.326 72.8107 268.862 73.3013 268.275 73.664C267.689 74.016 267.022 74.192 266.275 74.192C265.678 74.192 265.155 74.08 264.707 73.856C264.259 73.632 263.897 73.3173 263.619 72.912V77.52H261.571ZM265.843 72.4C266.494 72.4 267.033 72.1813 267.459 71.744C267.886 71.3067 268.099 70.7413 268.099 70.048C268.099 69.3547 267.886 68.784 267.459 68.336C267.033 67.888 266.494 67.664 265.843 67.664C265.182 67.664 264.638 67.888 264.211 68.336C263.795 68.7733 263.587 69.3387 263.587 70.032C263.587 70.7253 263.795 71.296 264.211 71.744C264.638 72.1813 265.182 72.4 265.843 72.4ZM275.865 74.192C275.065 74.192 274.355 74.0213 273.737 73.68C273.118 73.3387 272.633 72.8587 272.281 72.24C271.929 71.6213 271.753 70.9067 271.753 70.096C271.753 69.2747 271.923 68.544 272.265 67.904C272.617 67.264 273.097 66.768 273.705 66.416C274.323 66.0533 275.049 65.872 275.881 65.872C276.659 65.872 277.347 66.0427 277.945 66.384C278.542 66.7253 279.006 67.1947 279.337 67.792C279.678 68.3787 279.849 69.0347 279.849 69.76C279.849 69.8773 279.843 70 279.833 70.128C279.833 70.256 279.827 70.3893 279.817 70.528H273.785C273.827 71.1467 274.041 71.632 274.425 71.984C274.819 72.336 275.294 72.512 275.849 72.512C276.265 72.512 276.611 72.4213 276.889 72.24C277.177 72.048 277.39 71.8027 277.529 71.504H279.609C279.459 72.0053 279.209 72.464 278.857 72.88C278.515 73.2853 278.089 73.6053 277.577 73.84C277.075 74.0747 276.505 74.192 275.865 74.192ZM275.881 67.536C275.379 67.536 274.937 67.68 274.553 67.968C274.169 68.2453 273.923 68.672 273.817 69.248H277.769C277.737 68.7253 277.545 68.3093 277.193 68C276.841 67.6907 276.403 67.536 275.881 67.536Z" fill="white"/>
</g>
</g>
<defs>
<filter id="filter0_ddd_2813:48220" x="-59" y="0" width="478" height="288" filterUnits="userSpaceOnUse" color-interpolation-filters="sRGB">
<feFlood flood-opacity="0" result="BackgroundImageFix"/>
<feColorMatrix in="SourceAlpha" type="matrix" values="0 0 0 0 0 0 0 0 0 0 0 0 0 0 0 0 0 0 127 0" result="hardAlpha"/>
<feOffset dy="3.44189"/>
<feGaussianBlur stdDeviation="1.87945"/>
<feColorMatrix type="matrix" values="0 0 0 0 0 0 0 0 0 0 0 0 0 0 0 0 0 0 0.03 0"/>
<feBlend mode="normal" in2="BackgroundImageFix" result="effect1_dropShadow_2813:48220"/>
<feColorMatrix in="SourceAlpha" type="matrix" values="0 0 0 0 0 0 0 0 0 0 0 0 0 0 0 0 0 0 127 0" result="hardAlpha"/>
<feOffset dy="22.9118"/>
<feGaussianBlur stdDeviation="12.511"/>
<feColorMatrix type="matrix" values="0 0 0 0 0 0 0 0 0 0 0 0 0 0 0 0 0 0 0.05 0"/>
<feBlend mode="normal" in2="effect1_dropShadow_2813:48220" result="effect2_dropShadow_2813:48220"/>
<feColorMatrix in="SourceAlpha" type="matrix" values="0 0 0 0 0 0 0 0 0 0 0 0 0 0 0 0 0 0 127 0" result="hardAlpha"/>
<feOffset dy="76"/>
<feGaussianBlur stdDeviation="41.5"/>
<feColorMatrix type="matrix" values="0 0 0 0 0 0 0 0 0 0 0 0 0 0 0 0 0 0 0.07 0"/>
<feBlend mode="normal" in2="effect2_dropShadow_2813:48220" result="effect3_dropShadow_2813:48220"/>
<feBlend mode="normal" in="SourceGraphic" in2="effect3_dropShadow_2813:48220" result="shape"/>
</filter>
<clipPath id="clip0_2813:48220">
<path d="M128 129L40 129C31.1634 129 24 121.837 24 113L24 23C24 14.1634 31.1635 7 40 7L128 7.00001L128 129Z" fill="white"/>
</clipPath>
<clipPath id="clip1_2813:48220">
<rect x="128" y="7" width="104" height="122" fill="white"/>
</clipPath>
<clipPath id="clip2_2813:48220">
<path d="M232 7L320 7C328.837 7 336 14.1634 336 23V113C336 121.837 328.837 129 320 129H232L232 7Z" fill="white"/>
</clipPath>
</defs>
</svg>
