<svg width="22" height="22" viewBox="0 0 22 22" fill="none" xmlns="http://www.w3.org/2000/svg">
<g clip-path="url(#clip0)">
<path fillRule="evenodd" clipRule="evenodd" d="M2.75 4.58333C2.24374 4.58333 1.83333 4.99374 1.83333 5.5V16.5C1.83333 17.0063 2.24374 17.4167 2.75 17.4167H19.25C19.7563 17.4167 20.1667 17.0063 20.1667 16.5V5.5C20.1667 4.99374 19.7563 4.58333 19.25 4.58333H2.75ZM0 5.5C0 3.98122 1.23122 2.75 2.75 2.75H19.25C20.7688 2.75 22 3.98122 22 5.5V16.5C22 18.0188 20.7688 19.25 19.25 19.25H2.75C1.23122 19.25 0 18.0188 0 16.5V5.5Z" fill="black"/>
<path fillRule="evenodd" clipRule="evenodd" d="M0 9.16667C0 8.66041 0.410406 8.25 0.916667 8.25H21.0833C21.5896 8.25 22 8.66041 22 9.16667C22 9.67293 21.5896 10.0833 21.0833 10.0833H0.916667C0.410406 10.0833 0 9.67293 0 9.16667Z" fill="black"/>
</g>
<defs>
<clipPath id="clip0">
<rect width="22" height="22" fill="white"/>
</clipPath>
</defs>
</svg>
