<svg width="20" height="20" viewBox="0 0 24 24" fill="none" xmlns="http://www.w3.org/2000/svg">
<path d="M21 11.5C22.1046 11.5 22.6403 10.682 21.8076 9.95625C21.5589 9.73947 21.2632 9.49142 20.9134 9.20357C20.7528 9.07137 20.6373 8.89164 20.5758 8.69287C20.3063 7.82148 19.9112 6.98873 19.399 6.22208C18.3551 4.65982 16.8714 3.44218 15.1355 2.72314C13.3996 2.00411 11.4895 1.81598 9.64665 2.18254C7.80383 2.5491 6.11109 3.45389 4.78249 4.78249C3.45389 6.11109 2.5491 7.80382 2.18254 9.64664C1.81598 11.4895 2.00412 13.3996 2.72315 15.1355C3.44218 16.8714 4.65982 18.3551 6.22209 19.399L-nan -nanL6.22209 19.399C8.79176 21.116 11.5 18.4946 11.5 15.4041V14.9545C11.5 13.0467 13.0467 11.5 14.9546 11.5H21Z" fill="#DBEF06"/>
<path fillRule="evenodd" clipRule="evenodd" d="M18.5675 6.77765C17.6335 5.37984 16.306 4.29037 14.7528 3.64702C13.1996 3.00368 11.4906 2.83535 9.84174 3.16333C8.1929 3.4913 6.67834 4.30085 5.4896 5.48959C4.30085 6.67834 3.4913 8.19289 3.16333 9.84173C2.83536 11.4906 3.00368 13.1996 3.64703 14.7528C4.29037 16.306 5.37984 17.6335 6.77766 18.5675C7.64909 19.1498 8.48462 19.0159 9.18671 18.4343C9.93709 17.8126 10.5 16.6766 10.5 15.4041V14.9545C10.5 12.4944 12.4944 10.5 14.9546 10.5H20.9063C20.7221 10.3433 20.5137 10.1697 20.278 9.97575C19.9554 9.71033 19.7354 9.35985 19.6205 8.98836C19.3793 8.20868 19.0258 7.46361 18.5675 6.77765ZM21.3138 10.4406C21.3138 10.4406 21.3134 10.4409 21.3125 10.4415ZM21.8076 9.95625C22.6403 10.682 22.1046 11.5 21 11.5H14.9546C13.0467 11.5 11.5 13.0467 11.5 14.9545V15.4041C11.5 18.4946 8.79176 21.116 6.22209 19.399C4.65982 18.3551 3.44218 16.8714 2.72315 15.1355C2.00412 13.3996 1.81598 11.4895 2.18254 9.64664C2.5491 7.80382 3.45389 6.11108 4.78249 4.78249C6.11109 3.45389 7.80383 2.5491 9.64665 2.18254C11.4895 1.81598 13.3996 2.00411 15.1355 2.72314C16.8714 3.44218 18.3551 4.65982 19.399 6.22208C19.9112 6.98873 20.3063 7.82148 20.5758 8.69287C20.6373 8.89164 20.7528 9.07137 20.9134 9.20357C21.2632 9.49142 21.5589 9.73947 21.8076 9.95625Z" fill="#292929"/>
<path d="M8 17.5C8 17.7761 7.77614 18 7.5 18C7.22386 18 7 17.7761 7 17.5C7 17.2239 7.22386 17 7.5 17C7.77614 17 8 17.2239 8 17.5Z" fill="#292929"/>
<path fillRule="evenodd" clipRule="evenodd" d="M9.08473 4.8499C9.20964 5.09618 9.11125 5.39709 8.86497 5.52199C7.24659 6.3428 5.9991 7.75869 5.38024 9.48001C5.28681 9.73987 5.00042 9.87479 4.74056 9.78137C4.4807 9.68794 4.34578 9.40155 4.43921 9.14169C5.14376 7.18202 6.56506 5.5672 8.41264 4.63014C8.65892 4.50524 8.95982 4.60363 9.08473 4.8499Z" fill="#292929"/>
</svg>
