<svg width="20" height="20" viewBox="0 0 20 20" fill="none" xmlns="http://www.w3.org/2000/svg">
<path d="M17.5003 9.58366C18.4208 9.58366 18.8673 8.90199 18.1734 8.2972C17.9661 8.11655 17.7197 7.90984 17.4282 7.66997C17.2943 7.5598 17.1981 7.41003 17.1468 7.24439C16.9222 6.51823 16.593 5.82427 16.1661 5.1854C15.2962 3.88351 14.0598 2.86881 12.6132 2.26962C11.1667 1.67042 9.57488 1.51365 8.0392 1.81911C6.50351 2.12458 5.0929 2.87857 3.98573 3.98573C2.87857 5.0929 2.12458 6.50351 1.81911 8.0392C1.51365 9.57488 1.67042 11.1667 2.26962 12.6132C2.86881 14.0598 3.88351 15.2962 5.1854 16.1661L-nan -nanL5.1854 16.1661C7.32679 17.597 9.58366 15.4125 9.58366 12.8371V12.4625C9.58366 10.8725 10.8725 9.58366 12.4625 9.58366H17.5003Z" fill="#FAFAF5"/>
<path fillRule="evenodd" clipRule="evenodd" d="M15.4732 5.64837C14.6949 4.48352 13.5886 3.57564 12.2943 3.03952C11 2.50339 9.57581 2.36312 8.20177 2.63643C6.82774 2.90975 5.56561 3.58437 4.57499 4.57499C3.58437 5.56561 2.90975 6.82774 2.63643 8.20177C2.36312 9.5758 2.50339 11 3.03952 12.2943C3.57564 13.5886 4.48353 14.6949 5.64837 15.4732C6.37457 15.9585 7.07084 15.8469 7.65592 15.3622C8.28123 14.8442 8.75033 13.8975 8.75033 12.8371V12.4624C8.75033 10.4123 10.4123 8.75033 12.4625 8.75033H17.4223C17.2687 8.61978 17.0951 8.47506 16.8987 8.31345C16.6299 8.09227 16.4465 7.80021 16.3507 7.49063C16.1497 6.8409 15.8552 6.22 15.4732 5.64837ZM17.7618 8.70083C17.7618 8.70085 17.7615 8.7011 17.7607 8.70158ZM18.1734 8.2972C18.8673 8.90199 18.4208 9.58366 17.5003 9.58366H12.4625C10.8725 9.58366 9.58366 10.8725 9.58366 12.4624V12.8371C9.58366 15.4125 7.32679 17.597 5.1854 16.1661C3.88351 15.2962 2.86881 14.0598 2.26962 12.6132C1.67042 11.1667 1.51365 9.57488 1.81911 8.0392C2.12458 6.50351 2.87857 5.0929 3.98573 3.98573C5.0929 2.87857 6.50351 2.12458 8.0392 1.81911C9.57488 1.51365 11.1667 1.67042 12.6132 2.26962C14.0598 2.86881 15.2962 3.88351 16.1661 5.1854C16.593 5.82427 16.9222 6.51823 17.1468 7.24439C17.1981 7.41003 17.2943 7.5598 17.4282 7.66997C17.7197 7.90984 17.9661 8.11655 18.1734 8.2972Z" fill="#292929"/>
<path d="M6.66634 14.5837C6.66634 14.8138 6.47979 15.0003 6.24967 15.0003C6.01956 15.0003 5.83301 14.8138 5.83301 14.5837C5.83301 14.3535 6.01956 14.167 6.24967 14.167C6.47979 14.167 6.66634 14.3535 6.66634 14.5837Z" fill="#292929"/>
<path fillRule="evenodd" clipRule="evenodd" d="M7.5711 4.04177C7.67519 4.247 7.59319 4.49775 7.38796 4.60184C6.03932 5.28585 4.99974 6.46575 4.48402 7.90019C4.40617 8.11674 4.1675 8.22917 3.95096 8.15132C3.73441 8.07346 3.62197 7.8348 3.69983 7.61825C4.28696 5.98519 5.47137 4.63951 7.01102 3.85863C7.21625 3.75454 7.46701 3.83653 7.5711 4.04177Z" fill="#292929"/>
</svg>
