<svg width="12" height="16" viewBox="0 0 12 16" fill="none" xmlns="http://www.w3.org/2000/svg">
<path fillRule="evenodd" clipRule="evenodd" d="M6.16638 0.666504C6.44161 0.666504 6.68855 0.835648 6.788 1.09229L11.9547 14.4256C12.0572 14.6901 11.9811 14.9904 11.7651 15.1742C11.5491 15.358 11.2404 15.3851 10.9958 15.2416L6.16638 12.4091L1.33698 15.2416C1.09233 15.3851 0.783683 15.358 0.567675 15.1742C0.351668 14.9904 0.275601 14.6901 0.37808 14.4256L5.54475 1.09229C5.6442 0.835648 5.89114 0.666504 6.16638 0.666504ZM2.31253 13.1237L5.8291 11.0611C6.03736 10.939 6.29539 10.939 6.50365 11.0611L10.0202 13.1236L6.16638 3.17825L2.31253 13.1237Z" fill="black" fill-opacity="0.85"/>
</svg>
