<svg width="22" height="20" viewBox="0 0 22 20" fill="none" xmlns="http://www.w3.org/2000/svg">
    <path d="M21.5634 2.11909L21.5052 2.28551L21.3655 2.65393L21.3046 2.80684C21.0936 3.33147 20.8347 3.91365 20.5253 4.53917C20.0575 5.48499 19.525 6.4306 18.9245 7.35893C19.6096 8.58381 20 9.9963 20 11.5C20 15.6851 16.9755 19.1637 12.9929 19.8693C12.8199 19.9687 12.6149 20.0164 12.4009 19.995C12.3499 19.9899 12.3001 19.9811 12.2519 19.9688C12.0041 19.9889 11.7534 20 11.5 20C9.38176 20 7.44447 19.2251 5.95613 17.9434C3.4332 18.8514 1.53834 18.6279 0.626112 16.9856C-0.429092 15.0858 0.981938 12.5007 3.00514 10.9071C3.0091 10.8532 3.01854 10.7993 3.03257 10.746C3.41448 6.40485 7.05962 2.99999 11.5 2.99999C13.9172 2.99999 16.0987 4.00895 17.6464 5.62869C18.0441 4.97532 18.4055 4.31386 18.7326 3.65252L18.906 3.29299L18.2578 3.46626C17.7623 3.59834 17.2545 3.33418 17.0706 2.86849L17.034 2.75754C16.9019 2.262 17.1661 1.75416 17.6318 1.57026L17.7427 1.53373L20.357 0.836939C21.1261 0.631959 21.8148 1.36393 21.5634 2.11909ZM17.5949 9.23593L17.5688 9.26916C17.4374 9.4381 17.3035 9.606 17.1671 9.77275C16.1006 11.0768 14.9201 12.2575 13.62 13.2846L13.3206 13.5195L12.7271 13.9748C12.5305 14.1234 12.3352 14.2686 12.1413 14.4105L11.5636 14.8262L10.9945 15.2215C10.8063 15.3499 10.6196 15.4747 10.4344 15.5961L9.88382 15.9495C9.25049 16.3474 8.63727 16.7018 8.04738 17.0101C9.04834 17.6368 10.2318 18 11.5 18C11.555 18 11.6097 17.9993 11.6643 17.998C11.8134 17.3814 12.0675 16.6754 12.4648 15.9623C12.8322 15.3028 13.2897 14.7204 13.8492 14.2408C14.2077 13.9334 14.5963 13.6685 15.0098 13.4431C16.0531 12.8743 17.0844 12.6115 17.9188 12.5295C17.9722 12.1952 18 11.8508 18 11.5C18 10.7038 17.8569 9.94095 17.5949 9.23593ZM17.1456 14.7237L17.1328 14.7268C16.732 14.8408 16.3388 14.9964 15.9672 15.1991C15.6734 15.3593 15.4002 15.5454 15.1509 15.7592C14.7818 16.0755 14.4698 16.4727 14.2119 16.9356C14.1045 17.1286 14.0087 17.3285 13.9241 17.5327C15.2879 16.9844 16.4227 15.987 17.1456 14.7237ZM3.2355 13.4952L3.13144 13.6262C2.44403 14.5243 2.08076 15.4856 2.37452 16.0144C2.64548 16.5023 3.38969 16.5979 4.48972 16.3086C3.91187 15.4674 3.48135 14.5172 3.2355 13.4952ZM12.1764 6.79557C12.1358 7.35211 11.9526 7.7251 11.6094 8.12968L11.317 8.45299L11.3382 8.53549C11.588 9.57906 11.3376 10.3768 10.178 11.15C8.80259 12.0671 6.81926 12.6465 5.059 12.3797C5.22078 13.5765 5.70889 14.6707 6.43086 15.569L6.63721 15.4693L7.08569 15.2423C7.16186 15.2025 7.23873 15.1618 7.3163 15.1202L7.7898 14.8587C7.95031 14.7677 8.11345 14.6729 8.2791 14.5743L8.78347 14.267L9.30221 13.9369L9.8346 13.584C9.92443 13.5233 10.0148 13.4617 10.1057 13.3991L10.6572 13.0121L10.9375 12.8101L11.5065 12.3891C11.6023 12.3171 11.6985 12.2441 11.7952 12.1702L12.3802 11.7153C13.562 10.7816 14.6406 9.70277 15.619 8.50654C15.9283 8.1284 16.2239 7.74341 16.5059 7.35324C15.3124 5.9151 13.5131 4.99999 11.5 4.99999L11.6488 5.00239C12.0312 5.52699 12.2256 6.12172 12.1764 6.79557ZM9.1368 5.44453L9.0718 5.46873C7.02854 6.29213 5.49986 8.12372 5.10192 10.3473C6.26922 10.6149 7.83467 10.2345 8.89314 9.59705L9.30223 9.3333C9.41206 9.25987 9.43794 9.2289 9.42827 9.15489L9.39315 9.0009C9.28506 8.54914 9.25951 8.35235 9.34774 7.9954C9.43126 7.65781 9.56891 7.42275 9.79747 7.15484L10.1044 6.81311C10.1664 6.73794 10.1777 6.70447 10.1817 6.64984C10.207 6.30357 9.85499 5.86996 9.1368 5.44453Z" fill="black" fill-opacity="0.85"/>
</svg>
