<svg width="20" height="20" viewBox="0 0 20 20" fill="none" xmlns="http://www.w3.org/2000/svg">
<path d="M1.66675 8.57586C1.66675 8.04263 1.92189 7.5416 2.35313 7.22797L9.01935 2.37981C9.60377 1.95478 10.3955 1.95478 10.9799 2.37981L17.6461 7.22797C18.0774 7.5416 18.3325 8.04263 18.3325 8.57586V16.666C18.3325 17.5865 17.5863 18.3326 16.6659 18.3326H3.33342C2.41294 18.3326 1.66675 17.5865 1.66675 16.666V8.57586Z" fill="white"/>
<path fillRule="evenodd" clipRule="evenodd" d="M17.4992 16.666V8.57586C17.4992 8.30925 17.3716 8.05873 17.156 7.90192L10.4898 3.05376C10.1976 2.84124 9.8017 2.84124 9.50949 3.05376L2.84327 7.90192C2.62765 8.05873 2.50008 8.30925 2.50008 8.57586V16.666C2.50008 17.1262 2.87318 17.4993 3.33342 17.4993H16.6659C17.1261 17.4993 17.4992 17.1262 17.4992 16.666ZM2.35313 7.22797C1.92189 7.5416 1.66675 8.04263 1.66675 8.57586V16.666C1.66675 17.5865 2.41294 18.3326 3.33342 18.3326H16.6659C17.5863 18.3326 18.3325 17.5865 18.3325 16.666V8.57586C18.3325 8.04263 18.0774 7.5416 17.6461 7.22797L10.9799 2.37981C10.3955 1.95478 9.60377 1.95478 9.01935 2.37981L2.35313 7.22797Z" fill="#292929"/>
<path d="M7.49805 13.8636C7.49805 13.4034 7.87114 13.0303 8.33138 13.0303H11.6644C12.1247 13.0303 12.4978 13.4034 12.4978 13.8636V18.333H7.49805V13.8636Z" fill="#292929"/>
</svg>
