<svg width="16" height="16" viewBox="0 0 16 16" fill="none" xmlns="http://www.w3.org/2000/svg">
<path d="M7.99998 8.66732C8.36817 8.66732 8.66665 8.36884 8.66665 8.00065C8.66665 7.63246 8.36817 7.33398 7.99998 7.33398C7.63179 7.33398 7.33331 7.63246 7.33331 8.00065C7.33331 8.36884 7.63179 8.66732 7.99998 8.66732Z" fill="black" stroke="black" stroke-width="2" stroke-linecap="round" stroke-linejoin="round"/>
<path d="M12.6667 8.66732C13.0349 8.66732 13.3333 8.36884 13.3333 8.00065C13.3333 7.63246 13.0349 7.33398 12.6667 7.33398C12.2985 7.33398 12 7.63246 12 8.00065C12 8.36884 12.2985 8.66732 12.6667 8.66732Z" fill="black" stroke="black" stroke-width="2" stroke-linecap="round" stroke-linejoin="round"/>
<path d="M3.33335 8.66732C3.70154 8.66732 4.00002 8.36884 4.00002 8.00065C4.00002 7.63246 3.70154 7.33398 3.33335 7.33398C2.96516 7.33398 2.66669 7.63246 2.66669 8.00065C2.66669 8.36884 2.96516 8.66732 3.33335 8.66732Z" fill="black" stroke="black" stroke-width="2" stroke-linecap="round" stroke-linejoin="round"/>
</svg>
