<svg width="276" height="276" viewBox="0 0 276 276" fill="none" xmlns="http://www.w3.org/2000/svg">
<mask id="path-1-inside-1_7559_22813" fill="white">
<path d="M107.885 11.5363C106.861 7.23818 102.539 4.56084 98.307 5.83166C78.4939 11.7819 60.2371 22.122 44.9145 36.1222C29.5919 50.1224 17.6505 67.3743 9.94102 86.5714C8.29447 90.6714 10.5718 95.2176 14.7604 96.6238L124.331 133.411C130.285 135.41 136.115 130.083 134.66 123.974L107.885 11.5363Z"/>
</mask>
<path d="M107.885 11.5363C106.861 7.23818 102.539 4.56084 98.307 5.83166C78.4939 11.7819 60.2371 22.122 44.9145 36.1222C29.5919 50.1224 17.6505 67.3743 9.94102 86.5714C8.29447 90.6714 10.5718 95.2176 14.7604 96.6238L124.331 133.411C130.285 135.41 136.115 130.083 134.66 123.974L107.885 11.5363Z" fill="#FAFAF5" stroke="#FAFAF5" stroke-width="2" mask="url(#path-1-inside-1_7559_22813)"/>
<mask id="path-2-inside-2_7559_22813" fill="white">
<path d="M55.2685 220.731C52.1443 223.856 52.1281 228.942 55.4457 231.86C69.3234 244.067 85.7625 253.066 103.594 258.172C121.426 263.277 140.137 264.341 158.372 261.329C162.731 260.609 165.409 256.284 164.412 251.98L141.255 152.046C139.837 145.928 132.245 143.755 127.805 148.195L55.2685 220.731Z"/>
</mask>
<path d="M55.2685 220.731C52.1443 223.856 52.1281 228.942 55.4457 231.86C69.3234 244.067 85.7625 253.066 103.594 258.172C121.426 263.277 140.137 264.341 158.372 261.329C162.731 260.609 165.409 256.284 164.412 251.98L141.255 152.046C139.837 145.928 132.245 143.755 127.805 148.195L55.2685 220.731Z" stroke="#FAFAF5" stroke-width="5" mask="url(#path-2-inside-2_7559_22813)"/>
<mask id="path-3-inside-3_7559_22813" fill="white">
<path d="M41.7729 110.791C37.5214 109.588 33.0692 112.057 32.1849 116.386C29.0632 131.668 29.2828 147.479 32.8683 162.725C36.4538 177.971 43.3042 192.222 52.9104 204.511C55.6314 207.992 60.7171 208.218 63.9872 205.247L127.328 147.696C131.977 143.473 130.169 135.786 124.125 134.077L41.7729 110.791Z"/>
</mask>
<path d="M41.7729 110.791C37.5214 109.588 33.0692 112.057 32.1849 116.386C29.0632 131.668 29.2828 147.479 32.8683 162.725C36.4538 177.971 43.3042 192.222 52.9104 204.511C55.6314 207.992 60.7171 208.218 63.9872 205.247L127.328 147.696C131.977 143.473 130.169 135.786 124.125 134.077L41.7729 110.791Z" fill="#FAFAF5" stroke="#FAFAF5" stroke-width="2" mask="url(#path-3-inside-3_7559_22813)"/>
<mask id="path-4-inside-4_7559_22813" fill="white">
<path d="M165.631 234.107C166.852 238.353 171.297 240.834 175.441 239.302C190.072 233.895 203.39 225.37 214.452 214.283C225.514 203.196 234.01 189.86 239.385 175.217C240.907 171.07 238.417 166.63 234.168 165.418L151.866 141.953C145.826 140.231 140.249 145.821 141.984 151.857L165.631 234.107Z"/>
</mask>
<path d="M165.631 234.107C166.852 238.353 171.297 240.834 175.441 239.302C190.072 233.895 203.39 225.37 214.452 214.283C225.514 203.196 234.01 189.86 239.385 175.217C240.907 171.07 238.417 166.63 234.168 165.418L151.866 141.953C145.826 140.231 140.249 145.821 141.984 151.857L165.631 234.107Z" fill="#FAFAF5" stroke="#FAFAF5" stroke-width="2" mask="url(#path-4-inside-4_7559_22813)"/>
<mask id="path-5-inside-5_7559_22813" fill="white">
<path d="M245.232 162.52C249.54 163.505 253.858 160.814 254.549 156.45C256.548 143.817 256.484 130.925 254.341 118.28C252.197 105.635 248.01 93.4422 241.959 82.1742C239.869 78.2817 234.905 77.1641 231.163 79.5133L154.357 127.731C148.321 131.52 149.88 140.716 156.828 142.305L245.232 162.52Z"/>
</mask>
<path d="M245.232 162.52C249.54 163.505 253.858 160.814 254.549 156.45C256.548 143.817 256.484 130.925 254.341 118.28C252.197 105.635 248.01 93.4422 241.959 82.1742C239.869 78.2817 234.905 77.1641 231.163 79.5133L154.357 127.731C148.321 131.52 149.88 140.716 156.828 142.305L245.232 162.52Z" stroke="#FAFAF5" stroke-width="5" mask="url(#path-5-inside-5_7559_22813)"/>
<mask id="path-6-inside-6_7559_22813" fill="white">
<path d="M235.173 68.2502C238.671 65.5512 239.337 60.5092 236.431 57.181C222.638 41.3846 205.252 29.071 185.689 21.3076C166.125 13.5442 145.027 10.5857 124.155 12.6264C119.758 13.0563 116.785 17.1827 117.481 21.5459L134.879 130.695C135.835 136.691 142.86 139.479 147.667 135.77L235.173 68.2502Z"/>
</mask>
<path d="M235.173 68.2502C238.671 65.5512 239.337 60.5092 236.431 57.181C222.638 41.3846 205.252 29.071 185.689 21.3076C166.125 13.5442 145.027 10.5857 124.155 12.6264C119.758 13.0563 116.785 17.1827 117.481 21.5459L134.879 130.695C135.835 136.691 142.86 139.479 147.667 135.77L235.173 68.2502Z" stroke="#FAFAF5" stroke-width="5" mask="url(#path-6-inside-6_7559_22813)"/>
<path d="M223.75 138C223.75 185.911 184.911 224.75 137 224.75C89.0893 224.75 50.25 185.911 50.25 138C50.25 90.0893 89.0893 51.25 137 51.25C184.911 51.25 223.75 90.0893 223.75 138Z" fill="white" stroke="#FAFAF5" stroke-width="2.5"/>
</svg>
