<svg width="257" height="31" viewBox="0 0 257 31" fill="none" xmlns="http://www.w3.org/2000/svg">
<path d="M3.88589 28.999V0.539347H9.08994V28.999H3.88589ZM29.1159 28.999V0.539347H35.2957L44.3622 18.5909L53.3066 0.539347H59.4864V28.999H54.2824V9.36185L46.3543 24.9334H42.248L34.32 9.36185V28.999H29.1159ZM77.6886 28.999L88.0967 0.539347H93.9513L104.359 28.999H98.8301L96.5533 22.4126H85.454L83.1366 28.999H77.6886ZM86.877 18.347H95.1303L90.9833 6.51588L86.877 18.347ZM133.349 29.4869C130.665 29.4869 128.321 28.8771 126.315 27.6574C124.309 26.4377 122.751 24.7436 121.639 22.5753C120.528 20.3798 119.972 17.832 119.972 14.9318C119.972 12.0045 120.542 9.42961 121.68 7.20704C122.846 4.95737 124.485 3.20914 126.6 1.96233C128.741 0.688423 131.275 0.0514687 134.202 0.0514687C137.536 0.0514687 140.301 0.851049 142.496 2.45021C144.692 4.04937 146.115 6.25839 146.765 9.07725H140.951C140.518 7.74913 139.732 6.71916 138.593 5.98734C137.455 5.22842 135.991 4.84896 134.202 4.84896C131.356 4.84896 129.161 5.75696 127.616 7.57295C126.071 9.36185 125.299 11.8284 125.299 14.9725C125.299 18.1166 126.057 20.556 127.575 22.2907C129.12 23.9983 131.207 24.852 133.836 24.852C136.411 24.852 138.349 24.1609 139.65 22.7786C140.978 21.3691 141.778 19.526 142.049 17.2492H134.853V13.3462H147.294V28.999H142.496L142.09 25.2586C141.168 26.6138 140.016 27.6574 138.634 28.3892C137.252 29.121 135.49 29.4869 133.349 29.4869ZM166.863 28.999V0.539347H172.067V28.999H166.863ZM192.093 28.999V0.539347H197.297L210.673 20.5831V0.539347H215.877V28.999H210.673L197.297 8.99594V28.999H192.093ZM235.904 28.999V0.539347H254.485V4.72699H241.108V12.5331H253.265V16.5987H241.108V24.8114H254.485V28.999H235.904Z" fill="#292929"/>
<path d="M3.00307 28.999H2.4446V29.5575H3.00307V28.999ZM3.00307 0.539347V-0.0191234H2.4446V0.539347H3.00307ZM8.20713 0.539347H8.7656V-0.0191234H8.20713V0.539347ZM8.20713 28.999V29.5575H8.7656V28.999H8.20713ZM3.56154 28.999V0.539347H2.4446V28.999H3.56154ZM3.00307 1.09782H8.20713V-0.0191234H3.00307V1.09782ZM7.64866 0.539347V28.999H8.7656V0.539347H7.64866ZM8.20713 28.4406H3.00307V29.5575H8.20713V28.4406ZM28.2331 28.999H27.6746V29.5575H28.2331V28.999ZM28.2331 0.539347V-0.0191234H27.6746V0.539347H28.2331ZM34.4129 0.539347L34.912 0.288693L34.7574 -0.0191234H34.4129V0.539347ZM43.4794 18.5909L42.9803 18.8416L43.4827 19.842L43.9798 18.8389L43.4794 18.5909ZM52.4238 0.539347V-0.0191234H52.0773L51.9234 0.291397L52.4238 0.539347ZM58.6036 0.539347H59.1621V-0.0191234H58.6036V0.539347ZM58.6036 28.999V29.5575H59.1621V28.999H58.6036ZM53.3996 28.999H52.8411V29.5575H53.3996V28.999ZM53.3996 9.36185H53.958L52.9019 9.10846L53.3996 9.36185ZM45.4715 24.9334V25.4918H45.8139L45.9692 25.1867L45.4715 24.9334ZM41.3652 24.9334L40.8675 25.1867L41.0229 25.4918H41.3652V24.9334ZM33.4371 9.36185L33.9348 9.10846L32.8787 9.36185H33.4371ZM33.4371 28.999V29.5575H33.9956V28.999H33.4371ZM28.7916 28.999V0.539347H27.6746V28.999H28.7916ZM28.2331 1.09782H34.4129V-0.0191234H28.2331V1.09782ZM33.9138 0.790002L42.9803 18.8416L43.9784 18.3403L34.912 0.288693L33.9138 0.790002ZM43.9798 18.8389L52.9242 0.787298L51.9234 0.291397L42.9789 18.343L43.9798 18.8389ZM52.4238 1.09782H58.6036V-0.0191234H52.4238V1.09782ZM58.0452 0.539347V28.999H59.1621V0.539347H58.0452ZM58.6036 28.4406H53.3996V29.5575H58.6036V28.4406ZM53.958 28.999V9.36185H52.8411V28.999H53.958ZM52.9019 9.10846L44.9738 24.68L45.9692 25.1867L53.8973 9.61524L52.9019 9.10846ZM45.4715 24.3749H41.3652V25.4918H45.4715V24.3749ZM41.8629 24.68L33.9348 9.10846L32.9395 9.61524L40.8675 25.1867L41.8629 24.68ZM32.8787 9.36185V28.999H33.9956V9.36185H32.8787ZM33.4371 28.4406H28.2331V29.5575H33.4371V28.4406ZM76.8058 28.999L76.2813 28.8072L76.0069 29.5575H76.8058V28.999ZM87.2139 0.539347V-0.0191234H86.8235L86.6894 0.347532L87.2139 0.539347ZM93.0684 0.539347L93.5929 0.347532L93.4588 -0.0191234H93.0684V0.539347ZM103.477 28.999V29.5575H104.275L104.001 28.8072L103.477 28.999ZM97.9472 28.999L97.4194 29.1815L97.5494 29.5575H97.9472V28.999ZM95.6705 22.4126L96.1983 22.2302L96.0683 21.8542H95.6705V22.4126ZM84.5712 22.4126V21.8542H84.1757L84.0444 22.2273L84.5712 22.4126ZM82.2538 28.999V29.5575H82.6493L82.7806 29.1844L82.2538 28.999ZM85.9942 18.347L85.4666 18.1639L85.2092 18.9054H85.9942V18.347ZM94.2475 18.347V18.9054H95.035L94.7745 18.1622L94.2475 18.347ZM90.1005 6.51588L90.6275 6.33115L90.0979 4.82014L89.5729 6.33276L90.1005 6.51588ZM77.3303 29.1908L87.7384 0.731163L86.6894 0.347532L76.2813 28.8072L77.3303 29.1908ZM87.2139 1.09782H93.0684V-0.0191234H87.2139V1.09782ZM92.5439 0.731163L102.952 29.1908L104.001 28.8072L93.5929 0.347532L92.5439 0.731163ZM103.477 28.4406H97.9472V29.5575H103.477V28.4406ZM98.4751 28.8166L96.1983 22.2302L95.1426 22.5951L97.4194 29.1815L98.4751 28.8166ZM95.6705 21.8542H84.5712V22.9711H95.6705V21.8542ZM84.0444 22.2273L81.727 28.8137L82.7806 29.1844L85.098 22.598L84.0444 22.2273ZM82.2538 28.4406H76.8058V29.5575H82.2538V28.4406ZM85.9942 18.9054H94.2475V17.7885H85.9942V18.9054ZM94.7745 18.1622L90.6275 6.33115L89.5735 6.70061L93.7205 18.5317L94.7745 18.1622ZM89.5729 6.33276L85.4666 18.1639L86.5218 18.5301L90.6281 6.699L89.5729 6.33276ZM125.432 27.6574L125.142 28.1345L125.432 27.6574ZM120.757 22.5753L120.258 22.8275L120.26 22.83L120.757 22.5753ZM120.797 7.20704L120.301 6.95014L120.3 6.95245L120.797 7.20704ZM125.717 1.96233L126 2.44338L126.002 2.44229L125.717 1.96233ZM141.613 2.45021L141.942 1.9988V1.9988L141.613 2.45021ZM145.882 9.07725V9.63572H146.584L146.427 8.95167L145.882 9.07725ZM140.069 9.07725L139.538 9.2506L139.663 9.63572H140.069V9.07725ZM137.71 5.98734L137.401 6.45208L137.408 6.45712L137.71 5.98734ZM126.733 7.57295L127.156 7.93799L127.159 7.93483L126.733 7.57295ZM126.692 22.2907L126.272 22.6585L126.278 22.6654L126.692 22.2907ZM138.768 22.7786L138.361 22.3956L138.361 22.3958L138.768 22.7786ZM141.166 17.2492L141.721 17.3153L141.795 16.6908H141.166V17.2492ZM133.97 17.2492H133.412V17.8077H133.97V17.2492ZM133.97 13.3462V12.7877H133.412V13.3462H133.97ZM146.411 13.3462H146.969V12.7877H146.411V13.3462ZM146.411 28.999V29.5575H146.969V28.999H146.411ZM141.613 28.999L141.058 29.0594L141.112 29.5575H141.613V28.999ZM141.207 25.2586L141.762 25.1983L141.598 23.69L140.745 24.9446L141.207 25.2586ZM137.751 28.3892L138.012 28.8827L137.751 28.3892ZM132.466 28.9284C129.87 28.9284 127.629 28.3394 125.722 27.1802L125.142 28.1345C127.247 29.4147 129.695 30.0454 132.466 30.0454V28.9284ZM125.722 27.1802C123.808 26.0162 122.32 24.4007 121.254 22.3206L120.26 22.83C121.416 25.0865 123.045 26.8591 125.142 28.1345L125.722 27.1802ZM121.255 22.3231C120.19 20.2186 119.648 17.7599 119.648 14.9318H118.531C118.531 17.904 119.101 20.541 120.258 22.8275L121.255 22.3231ZM119.648 14.9318C119.648 12.0778 120.203 9.59288 121.294 7.46164L120.3 6.95245C119.115 9.26633 118.531 11.9312 118.531 14.9318H119.648ZM121.293 7.46394C122.412 5.30427 123.98 3.6351 126 2.44338L125.433 1.48128C123.225 2.78317 121.514 4.61048 120.301 6.95014L121.293 7.46394ZM126.002 2.44229C128.043 1.22815 130.475 0.60994 133.32 0.60994V-0.507002C130.309 -0.507002 127.673 0.148701 125.431 1.48238L126.002 2.44229ZM133.32 0.60994C136.563 0.60994 139.205 1.38657 141.285 2.90163L141.942 1.9988C139.631 0.315524 136.744 -0.507002 133.32 -0.507002V0.60994ZM141.285 2.90163C143.364 4.41622 144.716 6.5057 145.338 9.20283L146.427 8.95167C145.748 6.01107 144.254 3.68253 141.942 1.9988L141.285 2.90163ZM145.882 8.51878H140.069V9.63572H145.882V8.51878ZM140.599 8.9039C140.127 7.45787 139.263 6.32131 138.012 5.51757L137.408 6.45712C138.435 7.11701 139.142 8.0404 139.538 9.2506L140.599 8.9039ZM138.02 5.52267C136.766 4.68634 135.185 4.29048 133.32 4.29048V5.40743C135.032 5.40743 136.378 5.77049 137.401 6.45202L138.02 5.52267ZM133.32 4.29048C130.345 4.29048 127.98 5.24601 126.308 7.21108L127.159 7.93483C128.577 6.2679 130.602 5.40743 133.32 5.40743V4.29048ZM126.31 7.20793C124.653 9.12767 123.857 11.7391 123.857 14.9725H124.974C124.974 11.9176 125.724 9.59602 127.156 7.93798L126.31 7.20793ZM123.857 14.9725C123.857 18.2024 124.637 20.79 126.272 22.6584L127.113 21.9229C125.712 20.322 124.974 18.0308 124.974 14.9725H123.857ZM126.278 22.6654C127.945 24.5071 130.191 25.4105 132.954 25.4105V24.2936C130.458 24.2936 128.53 23.4894 127.107 21.916L126.278 22.6654ZM132.954 25.4105C135.626 25.4105 137.734 24.6914 139.174 23.1613L138.361 22.3958C137.199 23.6304 135.431 24.2936 132.954 24.2936V25.4105ZM139.174 23.1616C140.598 21.6499 141.438 19.6883 141.721 17.3153L140.612 17.1832C140.352 19.3637 139.593 21.0884 138.361 22.3956L139.174 23.1616ZM141.166 16.6908H133.97V17.8077H141.166V16.6908ZM134.529 17.2492V13.3462H133.412V17.2492H134.529ZM133.97 13.9047H146.411V12.7877H133.97V13.9047ZM145.852 13.3462V28.999H146.969V13.3462H145.852ZM146.411 28.4406H141.613V29.5575H146.411V28.4406ZM142.169 28.9387L141.762 25.1983L140.652 25.319L141.058 29.0594L142.169 28.9387ZM140.745 24.9446C139.872 26.2282 138.788 27.2084 137.49 27.8956L138.012 28.8827C139.479 28.1063 140.699 26.9994 141.669 25.5726L140.745 24.9446ZM137.49 27.8956C136.212 28.572 134.548 28.9284 132.466 28.9284V30.0454C134.666 30.0454 136.525 29.67 138.012 28.8827L137.49 27.8956ZM165.98 28.999H165.422V29.5575H165.98V28.999ZM165.98 0.539347V-0.0191234H165.422V0.539347H165.98ZM171.184 0.539347H171.743V-0.0191234H171.184V0.539347ZM171.184 28.999V29.5575H171.743V28.999H171.184ZM166.539 28.999V0.539347H165.422V28.999H166.539ZM165.98 1.09782H171.184V-0.0191234H165.98V1.09782ZM170.626 0.539347V28.999H171.743V0.539347H170.626ZM171.184 28.4406H165.98V29.5575H171.184V28.4406ZM191.21 28.999H190.652V29.5575H191.21V28.999ZM191.21 0.539347V-0.0191234H190.652V0.539347H191.21ZM196.414 0.539347L196.879 0.229346L196.713 -0.0191234H196.414V0.539347ZM209.79 20.5831L209.326 20.8931L210.349 22.426V20.5831H209.79ZM209.79 0.539347V-0.0191234H209.232V0.539347H209.79ZM214.994 0.539347H215.553V-0.0191234H214.994V0.539347ZM214.994 28.999V29.5575H215.553V28.999H214.994ZM209.79 28.999L209.326 29.3095L209.492 29.5575H209.79V28.999ZM196.414 8.99594L196.878 8.6855L195.856 7.1561V8.99594H196.414ZM196.414 28.999V29.5575H196.973V28.999H196.414ZM191.769 28.999V0.539347H190.652V28.999H191.769ZM191.21 1.09782H196.414V-0.0191234H191.21V1.09782ZM195.95 0.849349L209.326 20.8931L210.255 20.2731L196.879 0.229346L195.95 0.849349ZM210.349 20.5831V0.539347H209.232V20.5831H210.349ZM209.79 1.09782H214.994V-0.0191234H209.79V1.09782ZM214.436 0.539347V28.999H215.553V0.539347H214.436ZM214.994 28.4406H209.79V29.5575H214.994V28.4406ZM210.255 28.6886L196.878 8.6855L195.95 9.30637L209.326 29.3095L210.255 28.6886ZM195.856 8.99594V28.999H196.973V8.99594H195.856ZM196.414 28.4406H191.21V29.5575H196.414V28.4406ZM235.022 28.999H234.463V29.5575H235.022V28.999ZM235.022 0.539347V-0.0191234H234.463V0.539347H235.022ZM253.602 0.539347H254.16V-0.0191234H253.602V0.539347ZM253.602 4.72699V5.28546H254.16V4.72699H253.602ZM240.226 4.72699V4.16852H239.667V4.72699H240.226ZM240.226 12.5331H239.667V13.0915H240.226V12.5331ZM252.382 12.5331H252.94V11.9746H252.382V12.5331ZM252.382 16.5987V17.1572H252.94V16.5987H252.382ZM240.226 16.5987V16.0403H239.667V16.5987H240.226ZM240.226 24.8114H239.667V25.3699H240.226V24.8114ZM253.602 24.8114H254.16V24.2529H253.602V24.8114ZM253.602 28.999V29.5575H254.16V28.999H253.602ZM235.58 28.999V0.539347H234.463V28.999H235.58ZM235.022 1.09782H253.602V-0.0191234H235.022V1.09782ZM253.043 0.539347V4.72699H254.16V0.539347H253.043ZM253.602 4.16852H240.226V5.28546H253.602V4.16852ZM239.667 4.72699V12.5331H240.784V4.72699H239.667ZM240.226 13.0915H252.382V11.9746H240.226V13.0915ZM251.824 12.5331V16.5987H252.94V12.5331H251.824ZM252.382 16.0403H240.226V17.1572H252.382V16.0403ZM239.667 16.5987V24.8114H240.784V16.5987H239.667ZM240.226 25.3699H253.602V24.2529H240.226V25.3699ZM253.043 24.8114V28.999H254.16V24.8114H253.043ZM253.602 28.4406H235.022V29.5575H253.602V28.4406Z" fill="#DBEF06"/>
</svg>
