<svg width="32" height="32" viewBox="0 0 32 32" fill="none" xmlns="http://www.w3.org/2000/svg">
<rect width="32" height="32" fill="white"/>
<path d="M16.6667 20.0002C17.5422 20.0002 18.4091 19.8105 19.218 19.4419C20.0268 19.0734 20.7617 18.5332 21.3808 17.8523C21.9999 17.1713 22.4909 16.3629 22.8259 15.4732C23.161 14.5835 23.3334 13.6299 23.3334 12.6668C23.3334 11.7038 23.161 10.7502 22.8259 9.86048C22.4909 8.97076 21.9999 8.16234 21.3808 7.48138C20.7617 6.80042 20.0268 6.26025 19.218 5.89171C18.4091 5.52318 17.5422 5.3335 16.6667 5.3335L16.6667 12.6668V20.0002Z" fill="#DBEF06"/>
<path d="M8.66675 20C8.66675 20.8755 8.87367 21.7424 9.27571 22.5512C9.67775 23.3601 10.267 24.095 11.0099 24.714C11.7528 25.3331 12.6347 25.8242 13.6053 26.1592C14.5759 26.4942 15.6162 26.6667 16.6667 26.6667L16.6667 20L8.66675 20Z" fill="#DBEF06"/>
<path d="M12.6667 20C10.4576 20 8.66675 18.2091 8.66675 16C8.66675 13.7909 10.4576 12 12.6667 12C14.8759 12 16.6667 13.7909 16.6667 16C16.6667 18.2091 14.8759 20 12.6667 20Z" fill="#292929"/>
</svg>
