<svg width="22" height="22" viewBox="0 0 22 22" fill="none" xmlns="http://www.w3.org/2000/svg">
<path fillRule="evenodd" clipRule="evenodd" d="M4.58325 3.66683C4.34014 3.66683 4.10698 3.76341 3.93507 3.93531C3.76316 4.10722 3.66659 4.34038 3.66659 4.5835V17.4168C3.66659 17.6599 3.76316 17.8931 3.93507 18.065C4.10698 18.2369 4.34014 18.3335 4.58325 18.3335H8.24992C8.75618 18.3335 9.16658 18.7439 9.16658 19.2502C9.16658 19.7564 8.75618 20.1668 8.24992 20.1668H4.58325C3.85391 20.1668 3.15443 19.8771 2.63871 19.3614C2.12298 18.8456 1.83325 18.1462 1.83325 17.4168V4.5835C1.83325 3.85415 2.12298 3.15468 2.63871 2.63895C3.15443 2.12323 3.85391 1.8335 4.58325 1.8335H8.24992C8.75618 1.8335 9.16658 2.2439 9.16658 2.75016C9.16658 3.25642 8.75618 3.66683 8.24992 3.66683H4.58325Z" fill="#DD2E44"/>
<path fillRule="evenodd" clipRule="evenodd" d="M14.0185 5.76849C14.3765 5.4105 14.9569 5.4105 15.3148 5.76849L19.8982 10.3518C20.2562 10.7098 20.2562 11.2902 19.8982 11.6482L15.3148 16.2315C14.9569 16.5895 14.3765 16.5895 14.0185 16.2315C13.6605 15.8735 13.6605 15.2931 14.0185 14.9352L17.9536 11L14.0185 7.06485C13.6605 6.70687 13.6605 6.12647 14.0185 5.76849Z" fill="#DD2E44"/>
<path fillRule="evenodd" clipRule="evenodd" d="M7.33325 11.0002C7.33325 10.4939 7.74366 10.0835 8.24992 10.0835H19.2499C19.7562 10.0835 20.1666 10.4939 20.1666 11.0002C20.1666 11.5064 19.7562 11.9168 19.2499 11.9168H8.24992C7.74366 11.9168 7.33325 11.5064 7.33325 11.0002Z" fill="#DD2E44"/>
</svg>
