<svg width="61" height="68" viewBox="0 0 61 68" fill="none" xmlns="http://www.w3.org/2000/svg">
<path d="M0 10.667C0 5.14415 4.47715 0.666992 10 0.666992H50.0024C55.5253 0.666992 60.0024 5.14415 60.0024 10.667V48.1052C60.0024 53.6281 55.5253 58.1052 50.0024 58.1052H10C4.47715 58.1052 0 53.6281 0 48.1052V10.667Z" fill="#DBEF06"/>
<path fillRule="evenodd" clipRule="evenodd" d="M50.0024 4.00033H10C6.3181 4.00033 3.33333 6.9851 3.33333 10.667V48.1052C3.33333 51.7871 6.3181 54.7719 10 54.7719H50.0024C53.6843 54.7719 56.6691 51.7871 56.6691 48.1052V10.667C56.6691 6.98509 53.6843 4.00033 50.0024 4.00033ZM10 0.666992C4.47715 0.666992 0 5.14415 0 10.667V48.1052C0 53.6281 4.47715 58.1052 10 58.1052H50.0024C55.5253 58.1052 60.0024 53.6281 60.0024 48.1052V10.667C60.0024 5.14415 55.5253 0.666992 50.0024 0.666992H10Z" fill="#292929"/>
<path d="M30.0016 67.3359L23.5062 56.8092H36.4971L30.0016 67.3359Z" fill="#292929"/>
<path d="M21.8964 29.4283C21.8964 24.8966 25.8227 21.2229 30.666 21.2229C35.5093 21.2229 39.4355 24.8966 39.4355 29.4283C39.4355 33.9601 35.5093 37.6338 30.666 37.6338C25.8227 37.6338 21.8964 33.9601 21.8964 29.4283Z" fill="#292929"/>
</svg>
