<svg width="22" height="22" viewBox="0 0 22 22" fill="none" xmlns="http://www.w3.org/2000/svg">
    <path fillRule="evenodd" clipRule="evenodd" d="M-5.47329e-05 10C-5.47329e-05 4.38067 5.02652 0 10.9999 0C16.9734 0 21.9999 4.38067 21.9999 10C21.9999 10.5523 21.5522 11 20.9999 11H0.999945C0.447661 11 -5.47329e-05 10.5523 -5.47329e-05 10ZM2.07058 9H19.9293C19.379 5.12579 15.6758 2 10.9999 2C6.32407 2 2.62084 5.12579 2.07058 9ZM0.19354 12.4086C0.520141 11.9633 1.14594 11.867 1.59131 12.1936L3.80421 13.8164L6.88168 12.1238C7.18176 11.9587 7.54543 11.9587 7.84552 12.1238L10.9999 13.8587L14.1544 12.1238C14.4545 11.9587 14.8181 11.9587 15.1182 12.1238L18.1957 13.8164L20.4086 12.1936C20.8539 11.867 21.4797 11.9633 21.8063 12.4086C22.1329 12.854 22.0367 13.4798 21.5913 13.8064L18.8641 15.8064C18.5503 16.0365 18.1317 16.0637 17.7908 15.8762L14.6363 14.1413L11.4819 15.8762C11.1818 16.0413 10.8181 16.0413 10.518 15.8762L7.36359 14.1413L4.20914 15.8762C3.86826 16.0637 3.44958 16.0365 3.13586 15.8064L0.408582 13.8064C-0.0367834 13.4798 -0.133061 12.854 0.19354 12.4086ZM-5.47329e-05 18C-5.47329e-05 17.4477 0.447661 17 0.999945 17H20.9999C21.5522 17 21.9999 17.4477 21.9999 18V21C21.9999 21.5523 21.5522 22 20.9999 22H0.999945C0.447661 22 -5.47329e-05 21.5523 -5.47329e-05 21V18ZM1.99995 19V20H19.9999V19H1.99995Z" fill="black" fill-opacity="0.85"/>
</svg>
