<svg width="32" height="32" viewBox="0 0 32 32" fill="none" xmlns="http://www.w3.org/2000/svg">
<rect width="32" height="32" fill="white"/>
<path d="M16.0001 21.3333C13.4228 21.3333 11.3334 19.244 11.3334 16.6667C11.3334 14.0893 13.4228 12 16.0001 12C18.5774 12 20.6667 14.0893 20.6667 16.6667C20.6667 19.244 18.5774 21.3333 16.0001 21.3333Z" fill="#292929"/>
<path d="M18.6666 24.0002C18.6666 25.4729 17.4727 26.6668 15.9999 26.6668C14.5272 26.6668 13.3333 25.4729 13.3333 24.0002C13.3333 22.5274 14.5272 21.3335 15.9999 21.3335C17.4727 21.3335 18.6666 22.5274 18.6666 24.0002Z" fill="#DBEF06"/>
<path d="M9.33325 5.3335C9.33325 7.10161 10.0356 8.7973 11.2859 10.0475C12.5361 11.2978 14.2318 12.0002 15.9999 12.0002C17.768 12.0002 19.4637 11.2978 20.714 10.0475C21.9642 8.7973 22.6666 7.10161 22.6666 5.3335L15.9999 5.3335L9.33325 5.3335Z" fill="#DBEF06"/>
</svg>
