<svg width="14" height="16" viewBox="0 0 17 20" fill="none" xmlns="http://www.w3.org/2000/svg">
<path d="M1.7682 3.63448C1.89164 2.632 2.74316 1.87891 3.75321 1.87891H14.2155C15.2256 1.87891 16.0771 2.63202 16.2005 3.6345L16.9844 10.0008V17.8789C16.9844 18.9835 16.0889 19.8789 14.9844 19.8789H2.98438C1.87981 19.8789 0.984375 18.9835 0.984375 17.8789V10L1.7682 3.63448Z" fill="#DBEF06"/>
<path fillRule="evenodd" clipRule="evenodd" d="M14.2155 2.87891H3.75321C3.24818 2.87891 2.82242 3.25546 2.7607 3.75669L1.98438 10.0613V17.8789C1.98438 18.4312 2.43209 18.8789 2.98438 18.8789H14.9844C15.5367 18.8789 15.9844 18.4312 15.9844 17.8789V10.0621L15.208 3.7567C15.1463 3.25546 14.7205 2.87891 14.2155 2.87891ZM16.9844 10.0008L16.2005 3.6345C16.0771 2.63202 15.2256 1.87891 14.2155 1.87891H3.75321C2.74316 1.87891 1.89164 2.632 1.7682 3.63448L0.984375 10V17.8789C0.984375 18.9835 1.87981 19.8789 2.98438 19.8789H14.9844C16.0889 19.8789 16.9844 18.9835 16.9844 17.8789V10.0008Z" fill="#292929"/>
<path d="M1 1C1 0.447715 1.44772 0 2 0H16C16.5523 0 17 0.447715 17 1V3C17 3.55228 16.5523 4 16 4H2C1.44772 4 1 3.55228 1 3V1Z" fill="#DBEF06"/>
<path fillRule="evenodd" clipRule="evenodd" d="M16 1H2V3H16V1ZM2 0C1.44772 0 1 0.447715 1 1V3C1 3.55228 1.44772 4 2 4H16C16.5523 4 17 3.55228 17 3V1C17 0.447715 16.5523 0 16 0H2Z" fill="#292929"/>
<path d="M12 13C12 12.2044 11.6839 11.4413 11.1213 10.8787C10.5587 10.3161 9.79565 10 9 10C8.20435 10 7.44129 10.3161 6.87868 10.8787C6.31607 11.4413 6 12.2043 6 13L9 13H12Z" fill="#292929"/>
</svg>
