<svg width="42" height="42" viewBox="0 0 42 42" fill="none" xmlns="http://www.w3.org/2000/svg">
    <path d="M39 0H3C2.20435 0 1.44129 0.31607 0.87868 0.87868C0.31607 1.44129 0 2.20435 0 3V39C0 39.7957 0.31607 40.5587 0.87868 41.1213C1.44129 41.6839 2.20435 42 3 42H39C39.7957 42 40.5587 41.6839 41.1213 41.1213C41.6839 40.5587 42 39.7957 42 39V3C42 2.20435 41.6839 1.44129 41.1213 0.87868C40.5587 0.31607 39.7957 0 39 0ZM14.625 7.5C15.4408 7.5 16.2384 7.74193 16.9167 8.19519C17.5951 8.64845 18.1238 9.29269 18.436 10.0464C18.7482 10.8002 18.8299 11.6296 18.6707 12.4297C18.5116 13.2299 18.1187 13.9649 17.5418 14.5418C16.9649 15.1187 16.2299 15.5116 15.4297 15.6707C14.6296 15.8299 13.8002 15.7482 13.0464 15.436C12.2927 15.1238 11.6484 14.5951 11.1952 13.9167C10.7419 13.2384 10.5 12.4408 10.5 11.625C10.5 10.531 10.9346 9.48177 11.7082 8.70818C12.4818 7.9346 13.531 7.5 14.625 7.5ZM37.4077 32.6107C37.3431 32.7286 37.2479 32.827 37.1322 32.8954C37.0165 32.9639 36.8845 33 36.75 33H5.25C5.11655 33 4.98551 32.9645 4.8704 32.897C4.75528 32.8295 4.66026 32.7325 4.59515 32.616C4.53003 32.4995 4.49717 32.3678 4.49995 32.2343C4.50274 32.1009 4.54107 31.9707 4.611 31.857L10.611 22.107C10.6723 22.0073 10.7561 21.9232 10.8557 21.8617C10.9553 21.8002 11.0679 21.7628 11.1846 21.7526C11.3012 21.7424 11.4186 21.7596 11.5274 21.8029C11.6362 21.8462 11.7333 21.9144 11.811 22.002L17.166 28.0252L25.626 15.3337C25.6963 15.2309 25.7906 15.1467 25.9008 15.0886C26.011 15.0304 26.1337 15 26.2583 15C26.3831 15.0013 26.5056 15.0338 26.6147 15.0944C26.7237 15.1551 26.816 15.242 26.883 15.3472L37.383 31.8473C37.4552 31.9606 37.4955 32.0913 37.4999 32.2256C37.5042 32.3599 37.4724 32.4929 37.4077 32.6107Z" fill="#DAEF04"/>
</svg>
