<svg width="15" height="18" viewBox="0 0 15 18" fill="none" xmlns="http://www.w3.org/2000/svg">
<path d="M0 3.16699C0 1.78628 1.11929 0.666992 2.5 0.666992H12.5006C13.8813 0.666992 15.0006 1.78628 15.0006 3.16699V12.5265C15.0006 13.9073 13.8813 15.0265 12.5006 15.0265H2.5C1.11929 15.0265 0 13.9073 0 12.5265V3.16699Z" fill="#DBEF06"/>
<path fillRule="evenodd" clipRule="evenodd" d="M12.5006 1.50033H2.5C1.57953 1.50033 0.833333 2.24652 0.833333 3.16699V12.5265C0.833333 13.447 1.57953 14.1932 2.5 14.1932H12.5006C13.4211 14.1932 14.1673 13.447 14.1673 12.5265V3.16699C14.1673 2.24652 13.4211 1.50033 12.5006 1.50033ZM2.5 0.666992C1.11929 0.666992 0 1.78628 0 3.16699V12.5265C0 13.9073 1.11929 15.0265 2.5 15.0265H12.5006C13.8813 15.0265 15.0006 13.9073 15.0006 12.5265V3.16699C15.0006 1.78628 13.8813 0.666992 12.5006 0.666992H2.5Z" fill="#292929"/>
<path d="M7.50016 17.334L5.8763 14.7023H9.12402L7.50016 17.334Z" fill="#292929"/>
<path d="M5.47361 7.85684C5.47361 6.7239 6.45518 5.80547 7.666 5.80547C8.87683 5.80547 9.8584 6.7239 9.8584 7.85684C9.8584 8.98978 8.87683 9.9082 7.666 9.9082C6.45518 9.9082 5.47361 8.98978 5.47361 7.85684Z" fill="#292929"/>
</svg>
