<svg width="20" height="20" viewBox="0 0 20 20" fill="none" xmlns="http://www.w3.org/2000/svg">
<path d="M7 13L13 7" stroke="#292929" stroke-width="1.5" stroke-linecap="round" stroke-linejoin="round"/>
<path d="M7.5 8C7.77614 8 8 7.77614 8 7.5C8 7.22386 7.77614 7 7.5 7C7.22386 7 7 7.22386 7 7.5C7 7.77614 7.22386 8 7.5 8Z" fill="#292929" stroke="#292929" stroke-width="2" stroke-linecap="round" stroke-linejoin="round"/>
<path d="M12.5 13C12.7761 13 13 12.7761 13 12.5C13 12.2239 12.7761 12 12.5 12C12.2239 12 12 12.2239 12 12.5C12 12.7761 12.2239 13 12.5 13Z" fill="#292929" stroke="#292929" stroke-width="2" stroke-linecap="round" stroke-linejoin="round"/>
<path d="M3.00046 5.20046C3.00046 4.61698 3.23225 4.05741 3.64483 3.64483C4.05741 3.23225 4.61698 3.00046 5.20046 3.00046H6.20046C6.78136 3.00013 7.33855 2.77006 7.75046 2.36046L8.45046 1.66046C8.65491 1.45486 8.89798 1.2917 9.1657 1.18037C9.43342 1.06903 9.72051 1.01172 10.0105 1.01172C10.3004 1.01172 10.5875 1.06903 10.8552 1.18037C11.1229 1.2917 11.366 1.45486 11.5705 1.66046L12.2705 2.36046C12.6824 2.77006 13.2396 3.00013 13.8205 3.00046H14.8205C15.4039 3.00046 15.9635 3.23225 16.3761 3.64483C16.7887 4.05741 17.0205 4.61698 17.0205 5.20046V6.20046C17.0208 6.78136 17.2509 7.33855 17.6605 7.75046L18.3605 8.45046C18.5661 8.65491 18.7292 8.89798 18.8406 9.1657C18.9519 9.43342 19.0092 9.72051 19.0092 10.0105C19.0092 10.3004 18.9519 10.5875 18.8406 10.8552C18.7292 11.1229 18.5661 11.366 18.3605 11.5705L17.6605 12.2705C17.2509 12.6824 17.0208 13.2396 17.0205 13.8205V14.8205C17.0205 15.4039 16.7887 15.9635 16.3761 16.3761C15.9635 16.7887 15.4039 17.0205 14.8205 17.0205H13.8205C13.2396 17.0208 12.6824 17.2509 12.2705 17.6605L11.5705 18.3605C11.366 18.5661 11.1229 18.7292 10.8552 18.8406C10.5875 18.9519 10.3004 19.0092 10.0105 19.0092C9.72051 19.0092 9.43342 18.9519 9.1657 18.8406C8.89798 18.7292 8.65491 18.5661 8.45046 18.3605L7.75046 17.6605C7.33855 17.2509 6.78136 17.0208 6.20046 17.0205H5.20046C4.61698 17.0205 4.05741 16.7887 3.64483 16.3761C3.23225 15.9635 3.00046 15.4039 3.00046 14.8205V13.8205C3.00013 13.2396 2.77006 12.6824 2.36046 12.2705L1.66046 11.5705C1.45486 11.366 1.2917 11.1229 1.18037 10.8552C1.06903 10.5875 1.01172 10.3004 1.01172 10.0105C1.01172 9.72051 1.06903 9.43342 1.18037 9.1657C1.2917 8.89798 1.45486 8.65491 1.66046 8.45046L2.36046 7.75046C2.77006 7.33855 3.00013 6.78136 3.00046 6.20046V5.20046" stroke="#292929" stroke-width="1.5" stroke-linecap="round" stroke-linejoin="round"/>
</svg>
