<svg width="20" height="20" viewBox="0 0 20 20" fill="none" xmlns="http://www.w3.org/2000/svg">
<path d="M2.5 4.1665C2.5 2.78579 3.61929 1.6665 5 1.6665H15.0006C16.3813 1.6665 17.5006 2.78579 17.5006 4.1665V13.5261C17.5006 14.9068 16.3813 16.0261 15.0006 16.0261H5C3.61929 16.0261 2.5 14.9068 2.5 13.5261V4.1665Z" fill="white"/>
<path fillRule="evenodd" clipRule="evenodd" d="M15.0006 2.49984H5C4.07953 2.49984 3.33333 3.24603 3.33333 4.1665V13.5261C3.33333 14.4465 4.07953 15.1927 5 15.1927H15.0006C15.9211 15.1927 16.6673 14.4465 16.6673 13.5261V4.1665C16.6673 3.24603 15.9211 2.49984 15.0006 2.49984ZM5 1.6665C3.61929 1.6665 2.5 2.78579 2.5 4.1665V13.5261C2.5 14.9068 3.61929 16.0261 5 16.0261H15.0006C16.3813 16.0261 17.5006 14.9068 17.5006 13.5261V4.1665C17.5006 2.78579 16.3813 1.6665 15.0006 1.6665H5Z" fill="#292929"/>
<path d="M10.0004 18.334L8.37654 15.7023H11.6243L10.0004 18.334Z" fill="#292929"/>
<path d="M7.97409 8.85684C7.97409 7.7239 8.95566 6.80547 10.1665 6.80547C11.3773 6.80547 12.3589 7.7239 12.3589 8.85684C12.3589 9.98978 11.3773 10.9082 10.1665 10.9082C8.95566 10.9082 7.97409 9.98978 7.97409 8.85684Z" fill="#292929"/>
</svg>
