<svg width="24" height="24" viewBox="0 0 24 24" fill="none" xmlns="http://www.w3.org/2000/svg">
<g clip-path="url(#clip0_5385_26413)">
<rect width="24" height="24" fill="white"/>
<path fillRule="evenodd" clipRule="evenodd" d="M19.4773 5.68822C19.6985 5.90943 19.761 6.24383 19.6347 6.53002L13.0712 21.3983C12.941 21.6932 12.6385 21.8735 12.3172 21.8476C11.9959 21.8217 11.7261 21.5953 11.6448 21.2834L10.0399 15.1256L3.88211 13.5207C3.57017 13.4394 3.34381 13.1697 3.31793 12.8483C3.29205 12.527 3.4723 12.2245 3.76721 12.0943L18.6355 5.53083C18.9217 5.40449 19.2561 5.46702 19.4773 5.68822ZM6.3683 12.6026L10.8521 13.7712C11.1177 13.8404 11.3251 14.0478 11.3943 14.3134L12.5629 18.7972L17.4586 7.70689L6.3683 12.6026Z" fill="#748000"/>
</g>
<defs>
<clipPath id="clip0_5385_26413">
<rect width="24" height="24" fill="white"/>
</clipPath>
</defs>
</svg>
