<svg width="32" height="32" viewBox="0 0 32 32" fill="none" xmlns="http://www.w3.org/2000/svg">
<rect width="32" height="32" fill="white"/>
<path d="M23.3333 22.7616C22.3702 23.9997 21.2269 24.9818 19.9687 25.6519C18.7104 26.322 17.3618 26.6668 15.9999 26.6668C14.638 26.6668 13.2894 26.322 12.0312 25.6519C10.7729 24.9818 9.62962 23.9997 8.66659 22.7616L15.9999 13.3335L23.3333 22.7616Z" fill="#DBEF06"/>
<path d="M16 22.6665C12.6863 22.6665 10 19.9802 10 16.6665C10 13.3528 12.6863 10.6665 16 10.6665C19.3137 10.6665 22 13.3528 22 16.6665C22 19.9802 19.3137 22.6665 16 22.6665Z" fill="#292929"/>
<path d="M18 7.3335C18 8.43807 17.1046 9.3335 16 9.3335C14.8954 9.3335 14 8.43807 14 7.3335C14 6.22893 14.8954 5.3335 16 5.3335C17.1046 5.3335 18 6.22893 18 7.3335Z" fill="#DBEF06"/>
</svg>
