<svg width="32" height="32" viewBox="0 0 32 32" fill="none" xmlns="http://www.w3.org/2000/svg">
<path d="M0 16C0 7.16344 7.16344 0 16 0V0C24.8366 0 32 7.16344 32 16V16C32 24.8366 24.8366 32 16 32V32C7.16344 32 0 24.8366 0 16V16Z" fill="white"/>
<path d="M16 16.6673C16.3682 16.6673 16.6666 16.3688 16.6666 16.0007C16.6666 15.6325 16.3682 15.334 16 15.334C15.6318 15.334 15.3333 15.6325 15.3333 16.0007C15.3333 16.3688 15.6318 16.6673 16 16.6673Z" fill="black" stroke="black" stroke-width="2" stroke-linecap="round" stroke-linejoin="round"/>
<path d="M20.6667 16.6673C21.0349 16.6673 21.3333 16.3688 21.3333 16.0007C21.3333 15.6325 21.0349 15.334 20.6667 15.334C20.2985 15.334 20 15.6325 20 16.0007C20 16.3688 20.2985 16.6673 20.6667 16.6673Z" fill="black" stroke="black" stroke-width="2" stroke-linecap="round" stroke-linejoin="round"/>
<path d="M11.3334 16.6673C11.7015 16.6673 12 16.3688 12 16.0007C12 15.6325 11.7015 15.334 11.3334 15.334C10.9652 15.334 10.6667 15.6325 10.6667 16.0007C10.6667 16.3688 10.9652 16.6673 11.3334 16.6673Z" fill="black" stroke="black" stroke-width="2" stroke-linecap="round" stroke-linejoin="round"/>
</svg>
