<svg width="20" height="20" viewBox="0 0 20 20" fill="none" xmlns="http://www.w3.org/2000/svg">
    <path d="M4.16699 10.8332L14.0503 10.8332L11.0253 14.4665C10.8839 14.6367 10.8158 14.8561 10.8361 15.0765C10.8565 15.2968 10.9635 15.5001 11.1337 15.6415C11.3038 15.783 11.5232 15.851 11.7436 15.8307C11.964 15.8104 12.1672 15.7034 12.3087 15.5332L16.4753 10.5332C16.5034 10.4934 16.5284 10.4516 16.5503 10.4082C16.5503 10.3665 16.5503 10.3415 16.6087 10.2999C16.6464 10.2043 16.6662 10.1026 16.667 9.99985C16.6662 9.89711 16.6464 9.7954 16.6087 9.69985C16.6087 9.65819 16.6087 9.63319 16.5503 9.59152C16.5284 9.54807 16.5034 9.50629 16.4753 9.46652L12.3087 4.46652C12.2303 4.37245 12.1322 4.2968 12.0213 4.24495C11.9104 4.1931 11.7894 4.16632 11.667 4.16652C11.4723 4.16614 11.2836 4.23395 11.1337 4.35818C11.0493 4.42814 10.9795 4.51406 10.9284 4.61102C10.8773 4.70797 10.8458 4.81406 10.8357 4.92321C10.8256 5.03235 10.8372 5.14242 10.8698 5.24709C10.9023 5.35175 10.9552 5.44898 11.0253 5.53318L14.0503 9.16652L4.16699 9.16652C3.94598 9.16652 3.73402 9.25431 3.57774 9.4106C3.42146 9.56688 3.33366 9.77884 3.33366 9.99985C3.33366 10.2209 3.42146 10.4328 3.57774 10.5891C3.73402 10.7454 3.94598 10.8332 4.16699 10.8332Z" fill="#292929"/>
</svg>
