<svg width="37" height="24" viewBox="0 0 37 24" fill="none" xmlns="http://www.w3.org/2000/svg">
<rect width="37" height="24" rx="12" fill="#ef4c09"/>
<path d="M14.3335 12.6662L22.2402 12.6662L19.8202 15.5728C19.707 15.709 19.6526 15.8845 19.6688 16.0608C19.6851 16.2371 19.7707 16.3997 19.9068 16.5128C20.043 16.626 20.2185 16.6804 20.3948 16.6642C20.5711 16.6479 20.7337 16.5623 20.8468 16.4262L24.1802 12.4262C24.2026 12.3943 24.2226 12.3609 24.2402 12.3262C24.2402 12.2928 24.2402 12.2728 24.2868 12.2395C24.317 12.1631 24.3329 12.0817 24.3335 11.9995C24.3329 11.9173 24.317 11.8359 24.2868 11.7595C24.2868 11.7262 24.2868 11.7062 24.2402 11.6728C24.2226 11.6381 24.2026 11.6046 24.1802 11.5728L20.8468 7.57282C20.7841 7.49757 20.7057 7.43705 20.6169 7.39557C20.5282 7.35409 20.4314 7.33266 20.3335 7.33282C20.1777 7.33252 20.0268 7.38677 19.9068 7.48616C19.8393 7.54212 19.7835 7.61086 19.7426 7.68842C19.7017 7.76599 19.6765 7.85086 19.6685 7.93817C19.6604 8.02549 19.6697 8.11354 19.6957 8.19728C19.7217 8.28101 19.764 8.35879 19.8202 8.42616L22.2402 11.3328L14.3335 11.3328C14.1567 11.3328 13.9871 11.4031 13.8621 11.5281C13.7371 11.6531 13.6668 11.8227 13.6668 11.9995C13.6668 12.1763 13.7371 12.3459 13.8621 12.4709C13.9871 12.5959 14.1567 12.6662 14.3335 12.6662Z" fill="black"/>
</svg>
