<svg width="34" height="33" viewBox="0 0 34 33" fill="none" xmlns="http://www.w3.org/2000/svg">
<rect x="0.638916" y="0.158936" width="32.491" height="32.491" rx="16.2455" fill="#DAEF04"/>
<g clip-path="url(#clip0_3082_64484)">
<path d="M22.2695 11.9026C21.9583 11.5913 21.5889 11.3443 21.1822 11.1759C20.7756 11.0074 20.3398 10.9207 19.8996 10.9207C19.4595 10.9207 19.0237 11.0074 18.6171 11.1759C18.2104 11.3443 17.841 11.5913 17.5298 11.9026L16.8841 12.5483L16.2383 11.9026C15.6098 11.2741 14.7574 10.921 13.8685 10.921C12.9797 10.921 12.1272 11.2741 11.4987 11.9026C10.8702 12.5311 10.5171 13.3835 10.5171 14.2724C10.5171 15.1612 10.8702 16.0137 11.4987 16.6422L12.1445 17.288L16.8841 22.0276L21.6237 17.288L22.2695 16.6422C22.5808 16.3311 22.8277 15.9616 22.9962 15.555C23.1647 15.1484 23.2514 14.7125 23.2514 14.2724C23.2514 13.8323 23.1647 13.3964 22.9962 12.9898C22.8277 12.5832 22.5808 12.2137 22.2695 11.9026V11.9026Z" stroke="black" stroke-width="1.62455" stroke-linecap="round" stroke-linejoin="round"/>
</g>
<defs>
<clipPath id="clip0_3082_64484">
<rect width="14.6209" height="14.6209" fill="white" transform="translate(9.57373 9.09399)"/>
</clipPath>
</defs>
</svg>
