<svg width="20" height="20" viewBox="0 0 20 20" fill="none" xmlns="http://www.w3.org/2000/svg">
<path d="M8.11102 0.830696C7.52002 0.629696 6.91002 0.519696 6.28002 0.500536H6.17002C5.89002 0.500536 5.61102 0.519696 5.33002 0.560696H5.21002C4.91002 0.599696 4.61102 0.669696 4.32102 0.769696C0.590017 1.9907 -0.739984 6.0407 0.390017 9.5807C1.03002 11.3897 2.06102 13.0307 3.40102 14.3797C4.4071 15.3754 6.64725 17.3966 8.73455 18.7473C9.52722 19.2602 10.5354 19.2651 11.33 18.7552C13.4325 17.4061 15.6329 15.3845 16.611 14.3897C17.96 13.0407 18.99 11.3897 19.62 9.5807C20.731 6.0407 19.401 1.9907 15.71 0.790696C15.111 0.589696 14.481 0.500536 13.85 0.500536C12.46 0.490696 11.111 0.950696 10 1.7997C9.91002 1.7307 9.80002 1.6697 9.70002 1.6107C9.60002 1.5497 9.42002 1.4007 9.27002 1.3207L8.89002 1.1507C8.69002 1.0407 8.48102 0.960696 8.26002 0.889696C8.24002 0.870696 8.21002 0.849696 8.17002 0.830696H8.11102Z" fill="#DBEF06"/>
<path fillRule="evenodd" clipRule="evenodd" d="M8.11102 0.830696C7.52002 0.629696 6.91002 0.519696 6.28002 0.500536H6.17002C5.89002 0.500536 5.61102 0.519696 5.33002 0.560696H5.21002C4.91002 0.599696 4.61102 0.669696 4.32102 0.769696C0.590017 1.9907 -0.739984 6.0407 0.390017 9.5807C1.03002 11.3897 2.06102 13.0307 3.40102 14.3797C4.4071 15.3754 6.64725 17.3966 8.73455 18.7473C9.52722 19.2602 10.5354 19.2651 11.33 18.7552C13.4325 17.4061 15.6329 15.3845 16.611 14.3897C17.96 13.0407 18.99 11.3897 19.62 9.5807C20.731 6.0407 19.401 1.9907 15.71 0.790696C15.111 0.589696 14.481 0.500536 13.85 0.500536C12.46 0.490696 11.111 0.950696 10 1.7997C9.9247 1.74196 9.83539 1.68982 9.74964 1.63976C9.73292 1.63 9.71634 1.62032 9.70002 1.6107C9.66123 1.58704 9.61041 1.55014 9.55398 1.50917C9.4649 1.4445 9.36184 1.36967 9.27002 1.3207L8.89002 1.1507C8.69002 1.0407 8.48102 0.960696 8.26002 0.889696C8.24002 0.870696 8.21002 0.849696 8.17002 0.830696H8.11102ZM7.7176 1.75371C7.24843 1.60151 6.76518 1.5171 6.26418 1.50054H6.17002C5.93607 1.50054 5.70539 1.51651 5.4744 1.55022L5.40259 1.5607H5.27887C5.06602 1.59217 4.85362 1.64382 4.64701 1.71507L4.63955 1.71764L4.63204 1.7201C1.57218 2.72146 0.333294 6.09221 1.338 9.26197C1.92882 10.925 2.87739 12.4327 4.1075 13.672C5.09111 14.645 7.27367 16.6108 9.27784 17.9077C9.74323 18.2089 10.3277 18.2102 10.79 17.9136C12.8051 16.6205 14.9465 14.6562 15.898 13.6886L15.9039 13.6826C17.1412 12.4453 18.0889 10.9294 18.6705 9.26661C19.6609 6.08835 18.4148 2.72159 15.4008 1.7417L15.3919 1.73879C14.9087 1.57664 14.3878 1.50054 13.85 1.50054H13.8429C12.6798 1.4923 11.5459 1.87692 10.6072 2.59426L9.99903 3.05901L9.39159 2.5933C9.36964 2.57648 9.34391 2.56136 9.26561 2.51536C9.24498 2.50324 9.2207 2.48897 9.19187 2.47197L9.18554 2.46823L9.17926 2.4644C9.12088 2.42879 9.06566 2.38978 9.0301 2.36435C9.01236 2.35167 8.98298 2.33036 8.95793 2.3122C8.94209 2.30072 8.92799 2.29049 8.91964 2.28448C8.88548 2.2599 8.85794 2.2406 8.83439 2.225C8.82705 2.22014 8.82095 2.21621 8.816 2.21309L8.44412 2.04672L8.4081 2.02691C8.286 1.95976 8.14357 1.90262 7.95415 1.84177L7.73679 1.77194L7.7176 1.75371Z" fill="#292929"/>
</svg>
