<svg width="122" height="88" viewBox="0 0 122 88" fill="none" xmlns="http://www.w3.org/2000/svg">
<path d="M45.7551 13.8316C46.9794 10.6825 50.5248 9.12209 53.674 10.3464L90.6533 24.7232C93.8024 25.9476 95.3628 29.493 94.1385 32.6421L79.7616 69.6214C78.5373 72.7706 74.9919 74.3309 71.8428 73.1066L34.8635 58.7298C31.7143 57.5055 30.1539 53.9601 31.3783 50.8109L45.7551 13.8316Z" fill="#E5E5E1"/>
<path d="M47.8874 12.6813C44.256 11.2695 40.1676 13.0688 38.7557 16.7003L24.6956 52.865C23.2838 56.4965 25.0831 60.5849 28.7146 61.9967L64.8793 76.0569C68.5108 77.4687 72.5992 75.6693 74.011 72.0379L88.0711 35.8732C89.483 32.2417 87.6836 28.1533 84.0522 26.7414L47.8874 12.6813Z" fill="#F2F2ED" stroke="black"/>
<path fillRule="evenodd" clipRule="evenodd" d="M37.0278 64.6921L65.0607 75.5907C68.4348 76.9025 72.2334 75.2307 73.5452 71.8566L84.4415 43.8296L37.0278 64.6921Z" fill="#DBEF06"/>
</svg>
