<svg width="98" height="97" viewBox="0 0 98 97" fill="none" xmlns="http://www.w3.org/2000/svg">
<circle cx="50.7911" cy="51.3407" r="35.8304" transform="rotate(17.4417 50.7911 51.3407)" fill="#E5E5E1"/>
<circle cx="47.4434" cy="44.9227" r="36.3304" transform="rotate(17.4417 47.4434 44.9227)" fill="#F2F2ED" stroke="#292929"/>
<path d="M13.2604 34.183C11.85 38.672 11.3376 43.3948 11.7525 48.0818C12.1674 52.7688 13.5013 57.3282 15.6783 61.4997C17.8552 65.6711 20.8324 69.373 24.44 72.3938C28.0475 75.4147 32.2148 77.6954 36.7037 79.1058C41.1927 80.5161 45.9155 81.0285 50.6025 80.6136C55.2895 80.1987 59.8489 78.8648 64.0204 76.6878C68.1918 74.5109 71.8937 71.5337 74.9145 67.9261C77.9354 64.3186 80.2161 60.1513 81.6265 55.6624L47.4434 44.9227L13.2604 34.183Z" fill="#DBEF06"/>
</svg>
