<svg width="28" height="28" viewBox="0 0 28 28" fill="none" xmlns="http://www.w3.org/2000/svg">
<path d="M0 14C0 17.713 1.475 21.274 4.1005 23.8995C6.72601 26.525 10.287 28 14 28C17.713 28 21.274 26.525 23.8995 23.8995C26.525 21.274 28 17.713 28 14L14 14H0Z" fill="#DBEF06"/>
<path d="M19.6351 14.0012C19.6351 12.5049 19.0407 11.0699 17.9827 10.0118C16.9247 8.95378 15.4897 8.35938 13.9934 8.35938C12.4971 8.35937 11.062 8.95378 10.004 10.0118C8.94596 11.0699 8.35156 12.5049 8.35156 14.0012L13.9934 14.0012L19.6351 14.0012Z" fill="#292929"/>
</svg>
