<svg width="29" height="27" viewBox="0 0 29 27" fill="none" xmlns="http://www.w3.org/2000/svg">
<path d="M27.7354 20.3096C27.7354 16.2057 26.2743 12.27 23.6736 9.36815C21.0729 6.4663 17.5456 4.83606 13.8677 4.83606C10.1898 4.83606 6.66249 6.4663 4.0618 9.36814C1.46111 12.27 6.10352e-05 16.2057 6.10352e-05 20.3096L27.7354 20.3096Z" fill="#DBEF06"/>
<path d="M17.5589 3.40585C17.5589 2.50256 17.2373 1.63627 16.6649 0.997549C16.0924 0.358829 15.316 6.81967e-08 14.5065 0C13.697 -6.81957e-08 12.9206 0.358829 12.3481 0.997549C11.7757 1.63627 11.4541 2.50256 11.4541 3.40584L17.5589 3.40585Z" fill="#DBEF06"/>
<path d="M0.266602 24.1774C0.266602 23.1091 1.13257 22.2432 2.2008 22.2432H26.0677C27.1359 22.2432 28.0019 23.1091 28.0019 24.1774C28.0019 25.2456 27.1359 26.1116 26.0677 26.1116H2.2008C1.13257 26.1116 0.266602 25.2456 0.266602 24.1774Z" fill="#292929"/>
</svg>
