
<svg width="360" height="377" viewBox="0 0 360 377" fill="none" xmlns="http://www.w3.org/2000/svg">
<g filter="url(#filter0_ddddd_5385_27440)">
<g clip-path="url(#clip0_5385_27440)">
<rect x="24" width="312" height="187" rx="15.65" fill="#FAFAFA"/>
<g clip-path="url(#clip1_5385_27440)">
<circle cx="336.511" cy="84.6087" r="117.864" transform="rotate(-90 336.511 84.6087)" fill="#DBEF06"/>
</g>
<g clip-path="url(#clip2_5385_27440)">
<circle cx="336.511" cy="-33.2555" r="117.864" transform="rotate(-90 336.511 -33.2555)" fill="#DBEF06"/>
</g>
<!-- <path text="X" fill="#292929"/> -->
<!-- <path d="M50.8707 161.676V158.033L47.7485 152.09H49.0494L51.4458 156.938L53.8422 152.09H55.1294L52.0209 158.033V161.676H50.8707ZM58.2541 161.84C57.6151 161.84 57.04 161.694 56.5287 161.402C56.0175 161.11 55.6113 160.699 55.31 160.169C55.0179 159.631 54.8718 159.001 54.8718 158.28C54.8718 157.559 55.0224 156.933 55.3237 156.404C55.6249 155.865 56.0312 155.45 56.5424 155.158C57.0628 154.865 57.6425 154.719 58.2815 154.719C58.9206 154.719 59.4957 154.865 60.0069 155.158C60.5182 155.45 60.9199 155.865 61.212 156.404C61.5133 156.933 61.6639 157.559 61.6639 158.28C61.6639 159.001 61.5133 159.631 61.212 160.169C60.9107 160.699 60.4999 161.11 59.9796 161.402C59.4683 161.694 58.8932 161.84 58.2541 161.84ZM58.2541 160.854C58.6467 160.854 59.0119 160.758 59.3496 160.567C59.6874 160.375 59.9613 160.087 60.1713 159.704C60.3812 159.32 60.4862 158.846 60.4862 158.28C60.4862 157.714 60.3812 157.239 60.1713 156.856C59.9704 156.472 59.7011 156.185 59.3633 155.993C59.0256 155.801 58.665 155.705 58.2815 155.705C57.889 155.705 57.5238 155.801 57.186 155.993C56.8483 156.185 56.5744 156.472 56.3644 156.856C56.1544 157.239 56.0495 157.714 56.0495 158.28C56.0495 158.846 56.1544 159.32 56.3644 159.704C56.5744 160.087 56.8437 160.375 57.1723 160.567C57.5101 160.758 57.8707 160.854 58.2541 160.854ZM65.7418 161.84C64.9385 161.84 64.2994 161.598 63.8247 161.114C63.35 160.621 63.1126 159.868 63.1126 158.855V154.884H64.2629V158.732C64.2629 160.147 64.8426 160.854 66.002 160.854C66.5954 160.854 67.0838 160.644 67.4672 160.224C67.8598 159.795 68.0561 159.188 68.0561 158.403V154.884H69.2064V161.676H68.1656L68.0835 160.457C67.8735 160.886 67.5585 161.224 67.1386 161.47C66.7278 161.717 66.2622 161.84 65.7418 161.84ZM71.0997 161.676V154.884H72.1404L72.2363 156.185C72.4463 155.737 72.7658 155.381 73.1949 155.116C73.6239 154.852 74.1534 154.719 74.7833 154.719V155.924H74.4684C74.0667 155.924 73.697 155.997 73.3592 156.144C73.0214 156.28 72.7521 156.518 72.5513 156.856C72.3504 157.193 72.25 157.659 72.25 158.252V161.676H71.0997ZM79.7669 161.676V152.09H80.9172L86.0249 159.772V152.09H87.1752V161.676H86.0249L80.9172 153.994V161.676H79.7669ZM91.3991 161.84C90.8331 161.84 90.3629 161.744 89.9886 161.553C89.6143 161.361 89.3359 161.105 89.1533 160.786C88.9707 160.466 88.8794 160.119 88.8794 159.745C88.8794 159.051 89.1442 158.517 89.6737 158.143C90.2032 157.769 90.9244 157.581 91.8373 157.581H93.6722V157.499C93.6722 156.906 93.517 156.458 93.2067 156.157C92.8963 155.847 92.4809 155.692 91.9605 155.692C91.5132 155.692 91.1252 155.806 90.7966 156.034C90.477 156.253 90.2762 156.577 90.194 157.006H89.0164C89.062 156.513 89.2263 156.098 89.5093 155.76C89.8015 155.422 90.1621 155.167 90.5912 154.993C91.0202 154.811 91.4767 154.719 91.9605 154.719C92.91 154.719 93.622 154.975 94.0967 155.486C94.5806 155.988 94.8225 156.659 94.8225 157.499V161.676H93.7955L93.727 160.457C93.5353 160.84 93.2523 161.169 92.878 161.443C92.5128 161.708 92.0199 161.84 91.3991 161.84ZM91.5771 160.868C92.0153 160.868 92.3896 160.754 92.7 160.526C93.0195 160.297 93.2614 160.001 93.4258 159.635C93.5901 159.27 93.6722 158.887 93.6722 158.485V158.471H91.9331C91.2576 158.471 90.7783 158.59 90.4953 158.827C90.2214 159.056 90.0845 159.343 90.0845 159.69C90.0845 160.046 90.2123 160.334 90.4679 160.553C90.7327 160.763 91.1024 160.868 91.5771 160.868ZM96.5481 161.676V154.884H97.5889L97.671 155.87C97.8901 155.504 98.1823 155.221 98.5474 155.021C98.9126 154.82 99.3234 154.719 99.7799 154.719C100.318 154.719 100.78 154.829 101.163 155.048C101.555 155.267 101.857 155.6 102.067 156.048C102.304 155.637 102.628 155.313 103.039 155.075C103.459 154.838 103.911 154.719 104.395 154.719C105.207 154.719 105.855 154.966 106.339 155.459C106.823 155.943 107.065 156.691 107.065 157.705V161.676H105.928V157.828C105.928 157.125 105.787 156.595 105.504 156.239C105.221 155.883 104.815 155.705 104.285 155.705C103.737 155.705 103.281 155.92 102.916 156.349C102.56 156.769 102.382 157.371 102.382 158.156V161.676H101.231V157.828C101.231 157.125 101.09 156.595 100.807 156.239C100.524 155.883 100.118 155.705 99.5882 155.705C99.0495 155.705 98.5976 155.92 98.2325 156.349C97.8764 156.769 97.6984 157.371 97.6984 158.156V161.676H96.5481ZM111.851 161.84C111.203 161.84 110.628 161.694 110.126 161.402C109.624 161.101 109.227 160.685 108.935 160.156C108.652 159.626 108.51 159.001 108.51 158.28C108.51 157.568 108.652 156.947 108.935 156.417C109.218 155.879 109.61 155.463 110.112 155.171C110.623 154.87 111.212 154.719 111.879 154.719C112.536 154.719 113.102 154.87 113.577 155.171C114.061 155.463 114.43 155.851 114.686 156.335C114.942 156.819 115.069 157.339 115.069 157.896C115.069 157.997 115.065 158.097 115.056 158.198C115.056 158.298 115.056 158.412 115.056 158.54H109.647C109.674 159.06 109.793 159.494 110.003 159.841C110.222 160.179 110.491 160.434 110.811 160.608C111.139 160.781 111.486 160.868 111.851 160.868C112.326 160.868 112.723 160.758 113.043 160.539C113.362 160.32 113.595 160.023 113.741 159.649H114.878C114.695 160.279 114.344 160.804 113.823 161.224C113.312 161.635 112.655 161.84 111.851 161.84ZM111.851 155.692C111.304 155.692 110.815 155.861 110.386 156.198C109.966 156.527 109.724 157.011 109.66 157.65H113.933C113.905 157.038 113.695 156.559 113.303 156.212C112.91 155.865 112.426 155.692 111.851 155.692Z" fill="#292929"/> -->
<text x="47" y="135" fill="#292929" className="check">XXXX XXXX XXXX XXXX</text>
<text x="47" y="170" fill="#292929">MM/YY</text>
<path d="M77.0331 24.8865C78.3097 24.8865 79.418 25.0967 80.3579 25.5172C81.3119 25.9376 82.0413 26.5402 82.5464 27.3249C83.0514 28.1097 83.3039 29.0416 83.3039 30.1207C83.3039 31.1857 83.0514 32.1176 82.5464 32.9164C82.0413 33.7012 81.3119 34.3038 80.3579 34.7242C79.418 35.1446 78.3097 35.3548 77.0331 35.3548H73.7083V39.601H70.9727V24.8865H77.0331ZM76.9068 33.0426C78.0993 33.0426 79.0041 32.7903 79.6214 32.2858C80.2387 31.7813 80.5473 31.0596 80.5473 30.1207C80.5473 29.1818 80.2387 28.4601 79.6214 27.9556C79.0041 27.4511 78.0993 27.1988 76.9068 27.1988H73.7083V33.0426H76.9068Z" fill="#292929"/>
<path d="M84.6283 28.376H87.2587V39.601H84.6283V28.376ZM85.9541 26.5261C85.4771 26.5261 85.0773 26.379 84.7546 26.0847C84.4319 25.7764 84.2706 25.398 84.2706 24.9496C84.2706 24.5012 84.4319 24.1298 84.7546 23.8355C85.0773 23.5272 85.4771 23.373 85.9541 23.373C86.431 23.373 86.8309 23.5202 87.1535 23.8145C87.4762 24.0948 87.6375 24.4521 87.6375 24.8865C87.6375 25.349 87.4762 25.7414 87.1535 26.0637C86.8449 26.372 86.4451 26.5261 85.9541 26.5261Z" fill="#292929"/>
<path d="M94.2464 34.7873L92.2894 36.6371V39.601H89.659V24.0037H92.2894V33.4209L97.7395 28.376H100.896L96.2034 33.0846L101.338 39.601H98.1394L94.2464 34.7873Z" fill="#292929"/>
<path d="M106.572 34.7873L104.615 36.6371V39.601H101.985V24.0037H104.615V33.4209L110.065 28.376H113.222L108.529 33.0846L113.664 39.601H110.465L106.572 34.7873Z" fill="#292929"/>
<path d="M124.984 28.376V37.8983C124.984 41.8502 123.041 43.8262 119.156 43.8262C118.131 43.8262 117.149 43.686 116.209 43.4058C115.284 43.1395 114.519 42.7471 113.916 42.2286L115.094 40.2527C115.571 40.6591 116.153 40.9814 116.841 41.2196C117.528 41.4578 118.251 41.577 119.008 41.577C120.159 41.577 121 41.2967 121.533 40.7361C122.081 40.1896 122.354 39.3418 122.354 38.1926V37.6671C121.933 38.1296 121.421 38.4869 120.818 38.7392C120.215 38.9774 119.562 39.0965 118.861 39.0965C117.36 39.0965 116.174 38.6831 115.305 37.8563C114.449 37.0295 114.021 35.7893 114.021 34.1356V28.376H116.651V33.7993C116.651 34.7943 116.876 35.544 117.325 36.0485C117.788 36.539 118.44 36.7842 119.282 36.7842C120.222 36.7842 120.965 36.497 121.512 35.9224C122.074 35.3478 122.354 34.514 122.354 33.4209V28.376H124.984Z" fill="#292929"/>
<path d="M53.1199 31.3386H47.7457C47.5549 31.3386 47.4004 31.1749 47.4004 30.9728V25.2789C47.4004 25.0768 47.5549 24.9131 47.7457 24.9131H53.1199C53.3107 24.9131 53.4652 25.0768 53.4652 25.2789V30.9728C53.4652 31.1749 53.3107 31.3386 53.1199 31.3386Z" fill="#DBEF06"/>
<path d="M68.2821 39.4164H62.9078C62.717 39.4164 62.5625 39.2522 62.5625 39.0495V25.2801C62.5625 25.0773 62.717 24.9131 62.9078 24.9131H68.2821C68.4728 24.9131 68.6273 25.0773 68.6273 25.2801V39.0495C68.6273 39.2522 68.4728 39.4164 68.2821 39.4164Z" fill="#DBEF06"/>
<path d="M60.6562 39.4167H47.7445C47.5544 39.4167 47.4004 39.253 47.4004 39.0509V33.357C47.4004 33.1549 47.5544 32.9912 47.7445 32.9912H60.6562C60.8463 32.9912 61.0003 33.1549 61.0003 33.357V39.0509C61.0003 39.253 60.8463 39.4167 60.6562 39.4167Z" fill="#DBEF06"/>
<path d="M57.9682 31.4304C56.1921 31.4304 54.752 29.9713 54.752 28.1717C54.752 26.3722 56.1921 24.9131 57.9682 24.9131C59.7443 24.9131 61.1844 26.3722 61.1844 28.1717C61.1844 29.9713 59.7443 31.4304 57.9682 31.4304Z" fill="#DBEF06"/>
</g>
</g>
<defs>
<filter id="filter0_ddddd_5385_27440" x="-50.3374" y="0" width="460.674" height="376.756" filterUnits="userSpaceOnUse" color-interpolation-filters="sRGB">
<feFlood flood-opacity="0" result="BackgroundImageFix"/>
<feColorMatrix in="SourceAlpha" type="matrix" values="0 0 0 0 0 0 0 0 0 0 0 0 0 0 0 0 0 0 127 0" result="hardAlpha"/>
<feOffset dy="3.96451"/>
<feGaussianBlur stdDeviation="1.27671"/>
<feColorMatrix type="matrix" values="0 0 0 0 0.443137 0 0 0 0 0.482353 0 0 0 0 0 0 0 0 0.0372022 0"/>
<feBlend mode="normal" in2="BackgroundImageFix" result="effect1_dropShadow_5385_27440"/>
<feColorMatrix in="SourceAlpha" type="matrix" values="0 0 0 0 0 0 0 0 0 0 0 0 0 0 0 0 0 0 127 0" result="hardAlpha"/>
<feOffset dy="10.0265"/>
<feGaussianBlur stdDeviation="3.22888"/>
<feColorMatrix type="matrix" values="0 0 0 0 0.443137 0 0 0 0 0.482353 0 0 0 0 0 0 0 0 0.0532451 0"/>
<feBlend mode="normal" in2="effect1_dropShadow_5385_27440" result="effect2_dropShadow_5385_27440"/>
<feColorMatrix in="SourceAlpha" type="matrix" values="0 0 0 0 0 0 0 0 0 0 0 0 0 0 0 0 0 0 127 0" result="hardAlpha"/>
<feOffset dy="20.4532"/>
<feGaussianBlur stdDeviation="6.58662"/>
<feColorMatrix type="matrix" values="0 0 0 0 0.443137 0 0 0 0 0.482353 0 0 0 0 0 0 0 0 0.0667549 0"/>
<feBlend mode="normal" in2="effect2_dropShadow_5385_27440" result="effect3_dropShadow_5385_27440"/>
<feColorMatrix in="SourceAlpha" type="matrix" values="0 0 0 0 0 0 0 0 0 0 0 0 0 0 0 0 0 0 127 0" result="hardAlpha"/>
<feOffset dy="42.1297"/>
<feGaussianBlur stdDeviation="13.5672"/>
<feColorMatrix type="matrix" values="0 0 0 0 0.443137 0 0 0 0 0.482353 0 0 0 0 0 0 0 0 0.0827978 0"/>
<feBlend mode="normal" in2="effect3_dropShadow_5385_27440" result="effect4_dropShadow_5385_27440"/>
<feColorMatrix in="SourceAlpha" type="matrix" values="0 0 0 0 0 0 0 0 0 0 0 0 0 0 0 0 0 0 127 0" result="hardAlpha"/>
<feOffset dy="115.419"/>
<feGaussianBlur stdDeviation="37.1687"/>
<feColorMatrix type="matrix" values="0 0 0 0 0.443137 0 0 0 0 0.482353 0 0 0 0 0 0 0 0 0.12 0"/>
<feBlend mode="normal" in2="effect4_dropShadow_5385_27440" result="effect5_dropShadow_5385_27440"/>
<feBlend mode="normal" in="SourceGraphic" in2="effect5_dropShadow_5385_27440" result="shape"/>
</filter>
<clipPath id="clip0_5385_27440">
<rect x="24" width="312" height="187" rx="15.65" fill="white"/>
</clipPath>
<clipPath id="clip1_5385_27440">
<rect width="117.864" height="235.728" fill="white" transform="translate(218.647 202.473) rotate(-90)"/>
</clipPath>
<clipPath id="clip2_5385_27440">
<rect width="117.864" height="235.728" fill="white" transform="translate(218.647 84.6084) rotate(-90)"/>
</clipPath>
</defs>
</svg>
