<svg width="67" height="86" viewBox="0 0 67 86" fill="none" xmlns="http://www.w3.org/2000/svg">
<rect x="26.6836" y="2.10938" width="41.5997" height="73.9678" rx="8.46426" transform="rotate(19 26.6836 2.10938)" fill="#E5E5E1"/>
<path d="M31.1154 1.36437C27.9076 0.259848 24.4118 1.96486 23.3073 5.17262L3.84382 61.6987C2.7393 64.9064 4.4443 68.4022 7.65207 69.5067L33.1652 78.2916C36.3729 79.3961 39.8687 77.6911 40.9733 74.4834L60.4367 17.9573C61.5413 14.7496 59.8363 11.2538 56.6285 10.1492L31.1154 1.36437Z" fill="#F2F2ED" stroke="#292929"/>
<path d="M20.1348 15.918L56.3187 28.3771L40.4983 74.3228C39.4837 77.2694 36.2725 78.8356 33.3258 77.821L7.8127 69.0362C4.86603 68.0215 3.29979 64.8103 4.31441 61.8636L20.1348 15.918Z" fill="#DBEF06"/>
</svg>
