<svg width="67" height="42" viewBox="0 0 67 42" fill="none" xmlns="http://www.w3.org/2000/svg">
    <path d="M17.9183 42H1.0817C0.484099 42 0 41.5244 0 40.9373V1.06269C0 0.475552 0.484099 0 1.0817 0H17.9183C18.5159 0 19 0.475552 19 1.06269V40.9373C19 41.5244 18.5159 42 17.9183 42Z" fill="#DBEF06"/>
    <path d="M41.9183 41H25.0817C24.4841 41 24 40.5159 24 39.9183V23.0817C24 22.4841 24.4841 22 25.0817 22H41.9183C42.5159 22 43 22.4841 43 23.0817V39.9183C43 40.5159 42.5159 41 41.9183 41Z" fill="#DBEF06"/>
    <path d="M64.5519 19H26.4481C25.0956 19 24 18.7962 24 18.5446V1.45544C24 1.20381 25.0956 1 26.4481 1H64.5519C65.9044 1 67 1.20381 67 1.45544V18.5446C67 18.7962 65.9044 19 64.5519 19Z" fill="#DBEF06"/>
    <path d="M57.5 41C52.2538 41 48 36.7462 48 31.5C48 26.2538 52.2538 22 57.5 22C62.7462 22 67 26.2538 67 31.5C67 36.7462 62.7462 41 57.5 41Z" fill="#DBEF06"/>
</svg>
