<svg width="67" height="42" viewBox="0 0 67 42" fill="none" xmlns="http://www.w3.org/2000/svg">
    <path d="M17.9183 19H1.0817C0.484059 19 0 18.5159 0 17.9183V1.0817C0 0.484099 0.484059 0 1.0817 0H17.9183C18.5159 0 19 0.484099 19 1.0817V17.9183C19 18.5159 18.5159 19 17.9183 19Z" fill="#DBEF06"/>
    <path d="M65.912 18H25.088C24.4869 18 24 17.5414 24 16.9752V1.02477C24 0.458582 24.4869 0 25.088 0H65.912C66.5131 0 67 0.458582 67 1.02477V16.9752C67 17.5414 66.5131 18 65.912 18Z" fill="#DBEF06"/>
    <path d="M64.5519 42H26.4481C25.0956 42 24 41.5414 24 40.9752V25.0248C24 24.4586 25.0956 24 26.4481 24H64.5519C65.9044 24 67 24.4586 67 25.0248V40.9752C67 41.5414 65.9044 42 64.5519 42Z" fill="#DBEF06"/>
    <path d="M9.5 42C4.2538 42 0 37.7462 0 32.5C0 27.2538 4.2538 23 9.5 23C14.7462 23 19 27.2538 19 32.5C19 37.7462 14.7462 42 9.5 42Z" fill="#DBEF06"/>
</svg>
