<svg width="67" height="42" viewBox="0 0 67 42" fill="none" xmlns="http://www.w3.org/2000/svg">
    <path d="M65.9183 42H49.0817C48.4841 42 48 41.5244 48 40.9373V1.06269C48 0.475552 48.4841 0 49.0817 0H65.9183C66.5159 0 67 0.475552 67 1.06269V40.9373C67 41.5244 66.5159 42 65.9183 42Z" fill="#DBEF06"/>
    <path d="M41.9183 19H25.0817C24.4841 19 24 18.5159 24 17.9183V1.0817C24 0.484099 24.4841 0 25.0817 0H41.9183C42.5159 0 43 0.484099 43 1.0817V17.9183C43 18.5159 42.5159 19 41.9183 19Z" fill="#DBEF06"/>
    <path d="M40.5519 42H2.44806C1.09559 42 0 41.7962 0 41.5446V24.4554C0 24.2038 1.09559 24 2.44806 24H40.5519C41.9044 24 43 24.2038 43 24.4554V41.5446C43 41.7962 41.9044 42 40.5519 42Z" fill="#DBEF06"/>
    <path d="M9.5 19C4.2538 19 0 14.7462 0 9.5C0 4.2538 4.2538 0 9.5 0C14.7462 0 19 4.2538 19 9.5C19 14.7462 14.7462 19 9.5 19Z" fill="#DBEF06"/>
</svg>
