<svg width="50" height="35" viewBox="0 0 50 35" fill="none" xmlns="http://www.w3.org/2000/svg">
    <path d="M13.3579 15.6258H0.806394C0.360861 15.6258 0 15.2431 0 14.7705V1.45829C0 0.985759 0.360861 0.603027 0.806394 0.603027H13.3579C13.8035 0.603027 14.1643 0.985759 14.1643 1.45829V14.7705C14.1643 15.2431 13.8035 15.6258 13.3579 15.6258Z" fill="#DBEF06"/>
    <path d="M48.7691 34.5115H36.2175C35.772 34.5115 35.4111 34.1276 35.4111 33.6536V1.46098C35.4111 0.986962 35.772 0.603027 36.2175 0.603027H48.7691C49.2146 0.603027 49.5754 0.986962 49.5754 1.46098V33.6536C49.5754 34.1276 49.2146 34.5115 48.7691 34.5115Z" fill="#DBEF06"/>
    <path d="M30.9587 34.5113H0.803654C0.359635 34.5113 0 34.1286 0 33.656V20.3438C0 19.8713 0.359635 19.4885 0.803654 19.4885H30.9587C31.4028 19.4885 31.7624 19.8713 31.7624 20.3438V33.656C31.7624 34.1286 31.4028 34.5113 30.9587 34.5113Z" fill="#DBEF06"/>
    <path d="M24.6803 15.8404C20.5323 15.8404 17.1689 12.429 17.1689 8.22171C17.1689 4.01441 20.5323 0.603027 24.6803 0.603027C28.8284 0.603027 32.1917 4.01441 32.1917 8.22171C32.1917 12.429 28.8284 15.8404 24.6803 15.8404Z" fill="#DBEF06"/>
</svg>
