<svg width="67" height="43" viewBox="0 0 67 43" fill="none" xmlns="http://www.w3.org/2000/svg">
    <path d="M17.9183 42H1.0817C0.484099 42 0 41.5244 0 40.9373V1.06269C0 0.475552 0.484099 0 1.0817 0H17.9183C18.5159 0 19 0.475552 19 1.06269V40.9373C19 41.5244 18.5159 42 17.9183 42Z" fill="#DBEF06"/>
    <path d="M65.9183 20H49.0817C48.4841 20 48 19.5159 48 18.9183V2.0817C48 1.4841 48.4841 1 49.0817 1H65.9183C66.5159 1 67 1.4841 67 2.0817V18.9183C67 19.5159 66.5159 20 65.9183 20Z" fill="#DBEF06"/>
    <path d="M64.5519 43H26.4481C25.0956 43 24 42.7962 24 42.5446V25.4554C24 25.2038 25.0956 25 26.4481 25H64.5519C65.9044 25 67 25.2038 67 25.4554V42.5446C67 42.7962 65.9044 43 64.5519 43Z" fill="#DBEF06"/>
    <path d="M33.5 20C28.2538 20 24 15.7462 24 10.5C24 5.2538 28.2538 1 33.5 1C38.7462 1 43 5.2538 43 10.5C43 15.7462 38.7462 20 33.5 20Z" fill="#DBEF06"/>
</svg>
