<svg width="69" height="41" viewBox="0 0 69 41" fill="none" xmlns="http://www.w3.org/2000/svg">
    <path d="M67.9183 41H51.0817C50.4841 41 50 40.5159 50 39.9183V23.0817C50 22.4841 50.4841 22 51.0817 22H67.9183C68.5159 22 69 22.4841 69 23.0817V39.9183C69 40.5159 68.5159 41 67.9183 41Z" fill="#DBEF06"/>
    <path d="M40.5519 19H2.44806C1.09559 19 0 18.7962 0 18.5446V1.45544C0 1.20381 1.09559 1 2.44806 1H40.5519C41.9044 1 43 1.20381 43 1.45544V18.5446C43 18.7962 41.9044 19 40.5519 19Z" fill="#DBEF06"/>
    <path d="M40.5519 41H2.44806C1.09559 41 0 40.7962 0 40.5446V23.4554C0 23.2038 1.09559 23 2.44806 23H40.5519C41.9044 23 43 23.2038 43 23.4554V40.5446C43 40.7962 41.9044 41 40.5519 41Z" fill="#DBEF06"/>
    <path d="M59.5 19C54.2538 19 50 14.7462 50 9.5C50 4.2538 54.2538 0 59.5 0C64.7462 0 69 4.2538 69 9.5C69 14.7462 64.7462 19 59.5 19Z" fill="#DBEF06"/>
</svg>
