<svg width="20" height="20" viewBox="0 0 20 20" fill="none" xmlns="http://www.w3.org/2000/svg">
<path d="M1.66699 8.57586C1.66699 8.04263 1.92213 7.5416 2.35337 7.22797L9.01959 2.37981C9.60401 1.95478 10.3957 1.95478 10.9802 2.37981L17.6464 7.22797C18.0776 7.5416 18.3328 8.04263 18.3328 8.57586V16.666C18.3328 17.5865 17.5866 18.3326 16.6661 18.3326H3.33366C2.41319 18.3326 1.66699 17.5865 1.66699 16.666V8.57586Z" fill="#DBEF06"/>
<path fillRule="evenodd" clipRule="evenodd" d="M17.4994 16.666V8.57586C17.4994 8.30925 17.3719 8.05873 17.1562 7.90192L10.49 3.05376C10.1978 2.84124 9.80194 2.84124 9.50974 3.05376L2.84352 7.90192C2.6279 8.05873 2.50033 8.30925 2.50033 8.57586V16.666C2.50033 17.1262 2.87342 17.4993 3.33366 17.4993H16.6661C17.1263 17.4993 17.4994 17.1262 17.4994 16.666ZM2.35337 7.22797C1.92213 7.5416 1.66699 8.04263 1.66699 8.57586V16.666C1.66699 17.5865 2.41319 18.3326 3.33366 18.3326H16.6661C17.5866 18.3326 18.3328 17.5865 18.3328 16.666V8.57586C18.3328 8.04263 18.0776 7.5416 17.6464 7.22797L10.9802 2.37981C10.3957 1.95478 9.60401 1.95478 9.01959 2.37981L2.35337 7.22797Z" fill="#292929"/>
<path d="M7.49805 13.8636C7.49805 13.4034 7.87114 13.0303 8.33138 13.0303H11.6644C12.1247 13.0303 12.4978 13.4034 12.4978 13.8636V18.333H7.49805V13.8636Z" fill="#292929"/>
</svg>
